<?xml version="1.0" encoding="UTF-8"?>
<svg id="Layer_1" data-name="Layer 1" xmlns="http://www.w3.org/2000/svg" width="495.66" height="89.63" viewBox="0 0 495.66 89.63">
  <path d="M96.09,9.35l3.1,18.2S27.49,43.85,27.89,43.15s-.2-25.9-.2-25.9c0,0,68.3-8.6,68.4-7.9Z" style="fill: #f9cd5f; stroke: #000; stroke-miterlimit: 10; stroke-width: .5px;"/>
  <path d="M7.99,23.75S45.99-2.05,89.79,6.85c30.6,6.2-61.3,14.5-61.4,14.5l3.5,17.1L1.99,33.15l2-5.5s4-3.9,4-3.9Z" style="fill: #af8831; stroke: #000; stroke-miterlimit: 10; stroke-width: .5px;"/>
  <path d="M414.99,24.45l-.4,15,53,12.6s3.8-35.9,3.8-35.6-56.3,8-56.3,8h-.1Z" style="fill: #f9cd5f; stroke: #000; stroke-miterlimit: 10; stroke-width: .5px;"/>
  <path d="M495.39,18.35s1.3-11.7-17.4-12.2c-22.5-.7-39.1,1.8-56.6,12.4-26.3,15.9,37,9.8,37,9.8l-1.5,17.7,29.8-6.6,8.6-21.1" style="fill: #af8831; stroke: #000; stroke-miterlimit: 10; stroke-width: .5px;"/>
  <path d="M494.89,18.95c-15.7,17.4-27.9,18.1-43.2,16.4-25.2-2.8-106.2-21.1-124.2-24.4C296.69,5.25,250.49-.95,216.79.45c-33.1,1.4-83.8,10.7-153.7,25.6C1.99,39.05-2.61,33.35,7.99,23.75S.59,28.25.29,38.25c-.4,13.1,2.5,30.1,4.4,38.1,2.1,8.6,9.7,15.3,31.4,12.3,42.4-5.7,26.8-8.2,132-30.2,61.6-12.9,107.5-3,172,10.5,34.2,7.2,71.3,14.9,110.4,18.9,27.7,2.8,33.2-9.7,34.6-18l9.9-51.1-.1.2Z" style="fill: #f9cd5f; stroke: #000; stroke-miterlimit: 10; stroke-width: .5px;"/>
  <g>
    <path d="M40.99,47.05c4.9-.8,8.7-.4,11.6,1.5,2.3,1.5,4.2,3.9,4.9,7.8.8,4.4-.5,8.1-3.1,10.9-2.5,2.6-6,4.4-10.3,5.1l-10.6,1.8-.2-1.4c2.9-.7,3.2-1.1,2.6-4.3l-2.5-14.6c-.6-3.2-1-3.5-3.9-3.2l-.2-1.4,11.8-2-.1-.2ZM41.19,67.15c.5,2.7,1.3,3.5,4.1,3.1,5.2-.9,7.6-5,6.3-12.3-.6-3.7-2.2-6.7-4.2-8-1.9-1.3-4-1.5-6.6-1.1-1.4.2-2,.7-2.2.9-.3.4-.3,1.1,0,2.2,0,0,2.6,15.2,2.6,15.2Z" style="fill: #000; stroke-width: 0px;"/>
    <path d="M83.29,57.05v6.8l-19.7,4.7-.3-1.4c3.4-1.2,3.6-1.4,2.8-4.6l-3.5-14.5c-.8-3.2-1.3-3.4-3.9-3l-.3-1.4,12.4-2.9c4-.9,5.3-1.3,5.8-1.5.2.7,1.1,3.7,1.8,6.1l-1.4.5c-.6-1.2-1.7-2.6-2.5-3.1-.9-.6-1.4-.7-3.4-.2l-2.5.6c-1.4.3-1.6.5-1.3,1.7l1.9,7.9,3.7-.9c2.1-.5,2.4-1.2,2.3-4l1.5-.4,2,8.5-1.5.4c-1.3-2.7-1.7-3.1-3.9-2.5l-3.7.9,1.6,6.5c.6,2.6.9,3.4,3.3,2.9l2.7-.6c2.1-.5,2.6-.9,3.2-2.1.7-1.3,1.1-2.9,1.4-4.4h1.5Z" style="fill: #000; stroke-width: 0px;"/>
    <path d="M107.49,57.95l-.3-1.4c2.8-1,2.9-1.3,2.1-4.7l-3.6-14.8c-1.2,7.2-2.5,15.1-3.7,22.2l-1.3.3c-3.9-5.6-8.3-12-12.6-18,2.3,12.1,2.9,14.4,3.2,15.8.5,2,1.4,2.4,4.3,2l.3,1.4-9.4,2.2-.3-1.4c2.1-.7,3-1.4,2.8-3.7-.1-1.2-.5-3.4-2.6-16.1-.3-1.9-.8-2.8-4.2-2.3l-.3-1.4,8.2-1.9,11.3,15,3.4-18.5,8-1.9.3,1.4c-3,1-3.2,1.4-2.4,4.4l3.7,14.2c.8,3.4,1,3.5,4.2,3.2l.3,1.4-11.6,2.7.2-.1Z" style="fill: #000; stroke-width: 0px;"/>
    <path d="M129.99,26.35c7.1-1.5,13.9,2.4,15.5,9.9,1.7,8.1-3,14.5-10.2,16-7.6,1.6-14.4-2.8-16-10.1-1.4-6.5,1.9-14,10.6-15.8h.1ZM129.69,28.15c-3.9.8-5.9,5.3-4.5,12,1.4,6.5,5.1,11.5,10.3,10.3,3.6-.8,5.7-4.9,4.2-11.9-1.6-7.6-5.6-11.4-10-10.5v.1Z" style="fill: #000; stroke-width: 0px;"/>
    <path d="M174.59,37.35c-.2,2-.7,5.1-1,6.6-1,.4-4,1.7-6.9,2.3-10.3,1.9-15.8-4-16.9-10.1-1.4-8,3.7-14.4,12.9-16.1,3.3-.6,6.5-.3,7.4-.4.5,1.8,1.3,4.6,1.9,6.2l-1.5.5c-1.3-2.9-2.8-4.1-4.9-4.5-1-.2-2.4-.1-3.4,0-5.6,1-7.5,6.2-6.5,12.2,1.3,7,5.7,11.2,11,10.2,3.2-.6,5.1-2.7,6.4-7.3l1.6.3-.1.1Z" style="fill: #000; stroke-width: 0px;"/>
    <path d="M203.19,40.55c-.2,0-.7,0-1.2.1-5,.4-6.5-.5-7.9-1.9-1.8-1.9-3.3-4.1-4.9-6.3-.7-1-1.3-1.1-2.5-1h-.8l.7,5.7c.4,3.1.8,3.4,3.8,3.3l.2,1.4-11.9,1.5-.2-1.4c2.9-.7,3.2-1,2.8-4.2l-1.9-14.8c-.4-3.1-.8-3.4-3.8-3.3l-.2-1.4,11.2-1.5c3.4-.4,5.5-.3,7.2.6,1.7.8,3,2.4,3.3,4.8.4,3.4-1.6,5.6-4,6.9.7,1.1,2.6,3.4,4,5,1.6,2,2.6,2.9,3.5,3.6,1,.9,1.5,1.1,2.7,1.4v1.4l-.1.1ZM186.79,29.75c1.7-.2,2.9-.7,3.7-1.5,1.1-1.3,1.5-2.8,1.2-4.8-.5-4.1-3.1-5.3-5.3-5-1,.1-1.5.4-1.7.6-.2.3-.3.7-.2,1.5l1.2,9.3h1l.1-.1Z" style="fill: #000; stroke-width: 0px;"/>
    <path d="M218.89,39.45v-1.4c2.4-.5,2.4-.9,1.7-2.5-.4-1.2-1.1-2.9-1.8-4.4l-7.6.3c-.4,1.2-.9,2.7-1.2,4-.7,2.5.2,2.8,3.3,2.9v1.4l-9.6.4v-1.4c2.4-.4,3-.8,4.2-4.1l7.2-20.5,1.9-.4c2.8,6.7,5.8,13.5,8.6,19.9,1.6,3.6,2,3.8,4.5,4v1.4l-11.3.5.1-.1ZM214.59,20.95c-1,2.9-2,5.5-2.8,8.4l6.2-.3-3.4-8.1Z" style="fill: #000; stroke-width: 0px;"/>
    <path d="M255.19,34.35c-.7,1.9-2,4.8-2.7,6.1-1,.1-4.3.6-7.3.4-10.5-.9-14.2-8-13.7-14.2.7-8.1,7.3-13,16.7-12.2,3.4.3,6.3,1.4,7.3,1.6,0,1.8,0,4.8.2,6.5h-1.6c-.6-3-1.6-4.5-3.6-5.5-.9-.5-2.3-.7-3.3-.8-5.6-.5-8.9,4-9.4,10.1-.6,7.1,2.6,12.3,7.9,12.7,3.3.3,5.6-1.2,8.1-5.3l1.4.7v-.1Z" style="fill: #000; stroke-width: 0px;"/>
    <path d="M283.89,20.45c-2.5,0-3.5.5-5.1,2.7-1.7,2.3-3.1,4.3-5.4,8-.4.6-.5,1-.6,2l-.5,4.8c-.4,3.4,0,3.5,3.1,4.3l-.2,1.4-12.3-1.3.2-1.4c3.1,0,3.4-.2,3.7-3.5l.5-4.5c0-.9,0-1.3-.2-1.8-.9-2.4-2.1-5.2-4-9.5-1.2-2.7-1.7-3.2-3.9-3.7l.2-1.4,11.4,1.2-.2,1.4c-2.6,0-2.6.6-2.1,2,1,2.7,2.4,5.9,3.5,8.9,1.4-2.1,3.7-5.6,5-7.8.9-1.5.6-2-2.1-2.7l.2-1.4,9.1,1-.2,1.4-.1-.1Z" style="fill: #000; stroke-width: 0px;"/>
    <path d="M306.89,29.15c-.4-2.6-1-5.6-4.5-6.2-2.2-.4-4,1-4.3,3.1-.4,2.1.9,3.6,4,5.9,3.8,2.7,6.1,5.2,5.4,9-.8,4.5-5.1,7.2-10.6,6.3-2.5-.4-4.6-1.4-6.3-2.3v-6.9h1.6c.4,2.5,1.8,7,5.6,7.7,2.4.4,4-.8,4.4-3.3.4-2.2-.8-3.8-3.7-6.1-3.6-2.8-5.9-5.2-5.3-9.2.7-4,4.4-6.7,10.2-5.7,2.7.4,4.6,1.4,5.4,1.6,0,1.5-.2,3.5-.3,6h-1.5l-.1.1Z" style="fill: #000; stroke-width: 0px;"/>
    <path d="M321.19,51.25l.3-1.4c2.5.2,2.6-.3,2.4-2-.1-1.2-.4-3.1-.7-4.7l-7.5-1.5c-.7,1.1-1.5,2.4-2.1,3.5-1.3,2.2-.4,2.7,2.5,3.6l-.3,1.4-9.5-2,.3-1.4c2.5.2,3.2,0,5.1-3l12.1-18.1h1.9c1.1,7.2,2.3,14.5,3.4,21.5.7,3.9,1,4.2,3.4,5l-.3,1.4-11.1-2.3h.1ZM321.59,32.25c-1.7,2.5-3.3,4.9-4.8,7.5l6.1,1.3-1.3-8.7v-.1Z" style="fill: #000; stroke-width: 0px;"/>
    <path d="M362.99,35.85c-2.5-.3-3.3.3-3.7,1.6-.4,1.1-.7,2.4-1.3,5.1l-1.1,5c-.7,3.3-2,6.5-4.6,8.3-2.2,1.5-5,1.7-7.7,1.1-2.5-.5-4.9-1.6-6.4-3.5-1.9-2.2-2.4-4.7-1.5-9l2.1-9.7c.8-3.5.5-3.9-2.4-4.7l.3-1.4,11.8,2.5-.3,1.4c-2.9-.3-3.3-.2-4.1,3.4l-2.2,10.2c-.9,4.3.6,7.6,4.7,8.4,4.5,1,7.3-2,8.5-7.7l1-4.8c.6-2.6.7-4,.9-5.2.2-1.8-.8-2.4-3.4-3.1l.3-1.4,9.5,2-.3,1.4-.1.1Z" style="fill: #000; stroke-width: 0px;"/>
    <path d="M377.69,43.75c-.3-2.6-.8-5.6-4.4-6.3-2.2-.4-4,.9-4.4,3s.8,3.6,3.8,6c3.7,2.8,5.9,5.3,5.2,9.1-.9,4.5-5.3,7.1-10.7,6.1-2.5-.5-4.5-1.5-6.2-2.4,0-.9,0-5,.1-6.9h1.6c.3,2.5,1.7,7.1,5.4,7.8,2.3.4,4-.7,4.5-3.2.4-2.2-.7-3.8-3.6-6.1-3.6-2.9-5.8-5.3-5.1-9.3.8-4,4.5-6.6,10.3-5.5,2.6.5,4.5,1.5,5.4,1.7-.1,1.4-.2,3.5-.4,6h-1.5,0Z" style="fill: #000; stroke-width: 0px;"/>
    <path d="M391.79,65.45l.2-1.4c2.5,0,2.6-.3,2.3-2.1-.2-1.2-.5-3.1-.8-4.7l-7.5-1.3c-.6,1.1-1.4,2.5-2,3.6-1.2,2.3-.4,2.8,2.6,3.6l-.2,1.4-9.5-1.7.2-1.4c2.5.1,3.2-.1,5-3.1l11.5-18.5h1.9c1.3,7.1,2.7,14.4,4.1,21.3.8,3.8,1.1,4.2,3.6,4.9l-.2,1.4-11.2-1.9v-.1ZM391.59,46.45c-1.6,2.6-3.1,5-4.6,7.6l6.1,1.1s-1.5-8.7-1.5-8.7Z" style="fill: #000; stroke-width: 0px;"/>
    <path d="M431.39,60.85c-2.3,0-2.6.2-2.9,2.8l-.4,3c-.2,1.4-.4,2.7-.3,3.8-2,0-6.4.3-9.5-.1-9.1-1.4-13.5-7.7-12.3-15.3,1.3-8.7,9-12,17.3-10.8,3.1.5,6.4,1.8,7.7,2.1-.2,1.7-.3,4.7-.4,6.9h-1.5c-.4-3.4-1.6-5.3-3.9-6.4-.8-.4-2.2-.8-3.2-1-4.7-.7-8.8,2.8-9.8,9.5-1,6.8.6,12.5,6.9,13.5.8.1,1.8.2,2.6-.2.6-.3,1-.9,1.2-2.1l.5-3.4c.4-2.7,0-3.1-3.3-3.9l.2-1.4,11.6,1.7-.2,1.4-.3-.1Z" style="fill: #000; stroke-width: 0px;"/>
    <path d="M454.69,67.65c-.3,1-1.9,5.4-2.4,6.4l-20.2-2.2.2-1.4c3.6,0,3.8-.1,4.2-3.4l1.6-14.8c.4-3.3,0-3.6-2.7-4.1l.2-1.4,12.6,1.4c4.1.5,5.4.6,6,.6,0,.7-.2,3.9-.3,6.3h-1.5c-.2-1.3-.7-3-1.3-3.8-.6-.9-1.1-1.1-3.1-1.4l-2.5-.3c-1.5-.2-1.6-.1-1.8,1.2l-.9,8.1,3.8.4c2.2.2,2.6-.3,3.5-3l1.5.2-1,8.7-1.5-.2c-.3-2.9-.6-3.4-2.8-3.7l-3.8-.4-.7,6.7c-.3,2.7-.3,3.5,2.1,3.8l2.8.3c2.2.2,2.8,0,3.8-.9,1.1-1,2-2.4,2.8-3.6l1.4.5h0Z" style="fill: #000; stroke-width: 0px;"/>
  </g>
</svg>