<?xml version="1.0" standalone="no"?>
<!DOCTYPE svg PUBLIC "-//W3C//DTD SVG 20010904//EN"
 "http://www.w3.org/TR/2001/REC-SVG-20010904/DTD/svg10.dtd">
<svg version="1.0" xmlns="http://www.w3.org/2000/svg"
 width="512.000000pt" height="512.000000pt" viewBox="0 0 512.000000 512.000000"
 preserveAspectRatio="xMidYMid meet">
<metadata>
Created by potrace 1.14, written by Peter Selinger 2001-2017
</metadata>
<g transform="translate(0.000000,512.000000) scale(0.100000,-0.100000)"
fill="#000000" stroke="none">
<path d="M3180 4708 c-58 -10 -115 -35 -165 -71 -68 -50 -154 -148 -185 -212
-26 -53 -48 -136 -42 -158 1 -4 -33 -24 -75 -43 -43 -19 -99 -46 -125 -59
l-46 -24 -28 47 c-15 26 -30 49 -33 52 -3 3 -19 23 -36 45 -41 56 -139 152
-205 201 -200 148 -415 216 -665 209 -183 -5 -285 -29 -440 -105 -309 -151
-527 -435 -591 -769 -8 -41 -16 -76 -18 -79 -7 -6 -68 -16 -106 -16 l-35 -1
-2 63 c-2 67 -22 114 -59 139 -20 13 -26 10 -87 -43 -101 -87 -176 -212 -151
-252 6 -9 33 -25 60 -35 27 -10 51 -20 53 -23 2 -2 -16 -34 -41 -71 -25 -38
-53 -89 -62 -116 -24 -73 -39 -184 -34 -262 4 -59 13 -84 54 -165 28 -52 59
-117 71 -145 31 -71 94 -181 185 -325 171 -268 376 -503 699 -805 47 -44 114
-107 149 -140 34 -33 93 -85 129 -116 l66 -56 1 -129 c0 -144 15 -207 67 -284
93 -138 290 -271 537 -363 95 -35 285 -91 347 -102 18 -3 61 -12 95 -20 96
-21 338 -53 471 -61 95 -5 474 -5 542 1 33 2 89 7 125 10 76 6 107 10 265 35
355 55 725 196 913 346 94 75 149 142 188 229 l27 60 -2 573 c-1 343 1 578 7
585 18 23 36 90 51 192 9 59 7 445 -2 495 -43 237 -240 422 -598 563 -63 25
-128 48 -145 51 l-31 7 12 52 c18 82 4 128 -61 192 -29 30 -73 63 -96 74 -84
38 -116 49 -157 56 -40 7 -41 8 -42 46 -2 42 -2 44 -13 74 -19 51 -32 66 -70
84 -36 17 -69 25 -211 46 -27 5 -30 9 -31 42 -2 85 -25 130 -153 315 -58 83
-115 148 -130 148 -3 0 -26 6 -51 13 -30 9 -60 11 -90 5z"/>
</g>
</svg>
