<?xml version="1.0" standalone="no"?>
<!DOCTYPE svg PUBLIC "-//W3C//DTD SVG 20010904//EN"
 "http://www.w3.org/TR/2001/REC-SVG-20010904/DTD/svg10.dtd">
<svg version="1.0" xmlns="http://www.w3.org/2000/svg"
 width="700.000000pt" height="700.000000pt" viewBox="0 0 700.000000 700.000000"
 preserveAspectRatio="xMidYMid meet">
<metadata>
Created by potrace 1.14, written by Peter Selinger 2001-2017
</metadata>
<g transform="translate(0.000000,700.000000) scale(0.100000,-0.100000)"
fill="#000000" stroke="none">
<path d="M2060 5954 c-338 -40 -610 -162 -836 -376 -83 -79 -202 -227 -255
-320 -26 -43 -29 -45 -84 -52 -32 -3 -59 -5 -60 -4 -2 2 1 26 5 53 13 82 -19
197 -66 236 -15 12 -21 9 -60 -35 -24 -27 -48 -63 -55 -80 -7 -17 -14 -33 -15
-35 -2 -2 -24 17 -49 43 -54 56 -114 85 -173 86 l-43 0 7 -37 c7 -46 48 -140
72 -167 16 -18 16 -19 -3 -12 -11 4 -54 12 -96 18 -84 12 -197 1 -259 -26
l-35 -15 76 -74 c102 -102 238 -167 346 -167 33 0 41 -8 24 -25 -20 -20 -70
-133 -85 -190 -75 -292 25 -583 382 -1110 514 -760 1233 -1477 1972 -1966 236
-157 421 -264 665 -384 478 -236 658 -289 970 -288 156 0 201 7 331 48 18 5
23 0 38 -39 25 -65 85 -154 143 -209 55 -54 133 -108 144 -102 25 16 35 211
13 283 -6 20 0 18 77 -22 100 -53 174 -76 244 -76 61 0 115 17 115 35 0 24
-151 174 -225 223 l-72 49 93 12 c114 14 225 48 293 90 l51 31 259 0 258 0 40
29 c43 31 80 76 106 127 9 17 145 472 302 1010 157 539 291 991 297 1006 17
45 11 100 -27 253 -57 229 -127 384 -221 493 l-37 44 -1 121 c-2 95 -6 132
-21 167 -36 86 -87 162 -156 232 -38 39 -71 78 -74 87 -10 33 -47 45 -145 46
-221 4 -526 107 -756 256 l-80 52 -16 85 c-39 204 -178 357 -378 416 -73 22
-218 22 -290 0 -192 -57 -331 -201 -375 -386 -8 -35 -15 -91 -15 -125 l0 -62
-42 -11 c-228 -57 -509 -205 -654 -344 -36 -35 -67 -58 -69 -52 -1 6 -10 47
-20 91 -86 391 -381 759 -751 935 -108 52 -240 95 -351 115 -89 15 -308 27
-373 19z m341 -70 c484 -81 901 -438 1048 -899 53 -164 64 -236 65 -415 0
-239 -33 -385 -134 -595 -124 -258 -358 -491 -618 -616 -483 -232 -1078 -150
-1467 201 -226 205 -362 438 -426 731 -30 135 -33 386 -6 521 98 485 434 867
902 1024 56 18 140 40 186 48 117 19 334 20 450 0z m-1635 -499 c22 -53 17
-131 -12 -200 -37 -86 -37 -89 -14 -103 18 -11 22 -9 38 18 9 16 24 32 32 36
21 8 100 22 100 18 0 -2 -14 -38 -30 -80 -291 -731 97 -1575 841 -1829 162
-56 241 -68 449 -71 159 -3 210 -7 275 -24 44 -12 119 -24 167 -27 l86 -6 7
-54 c17 -139 76 -281 148 -360 90 -98 225 -153 375 -153 48 1 106 4 128 9 l42
8 6 -53 c7 -60 48 -182 79 -234 58 -97 149 -175 260 -225 230 -101 523 -49
622 110 25 41 30 58 29 111 -1 108 -46 150 -159 148 -60 -1 -84 -7 -163 -42
-130 -59 -166 -66 -218 -43 -68 30 -113 106 -130 217 l-7 47 81 -5 c66 -5 91
-12 134 -37 145 -83 186 -94 220 -57 11 12 15 11 25 -8 11 -19 12 -18 13 17
l0 37 49 -25 c63 -31 230 -127 299 -172 l53 -33 -22 -31 c-28 -40 -30 -100 -3
-135 40 -54 64 -64 159 -70 112 -7 141 -16 184 -56 43 -40 132 -178 156 -242
24 -63 27 -182 5 -196 -8 -5 -23 -10 -32 -10 -29 0 -121 -38 -172 -71 l-49
-30 20 -21 20 -20 39 26 c161 106 403 98 659 -23 l80 -38 -50 -31 c-27 -18
-86 -44 -130 -59 -75 -26 -91 -28 -253 -28 -155 0 -173 -2 -178 -17 -6 -21 2
-38 19 -38 21 0 154 -67 217 -110 33 -22 86 -66 117 -98 l58 -57 -33 -3 c-79
-8 -247 68 -372 169 l-75 60 -18 -22 c-17 -22 -17 -23 12 -53 64 -66 102 -196
83 -281 l-9 -40 -69 70 c-104 106 -164 237 -180 394 -7 70 -7 72 -33 69 -25
-3 -26 -5 -23 -63 2 -33 7 -76 11 -96 l8 -37 -49 -16 c-96 -31 -177 -39 -342
-33 -237 8 -338 33 -626 156 -471 202 -983 517 -1430 879 -377 306 -801 734
-1117 1127 -330 411 -609 859 -688 1105 -33 103 -45 274 -25 372 24 127 100
264 150 275 17 3 30 7 30 9 0 1 -4 14 -9 27 -9 24 -11 24 -62 14 -109 -21
-257 24 -368 114 -65 52 -58 57 69 58 92 1 179 -16 250 -48 l45 -20 11 22 c11
19 6 28 -44 82 -56 60 -102 139 -88 152 11 11 74 -27 110 -68 19 -20 46 -58
62 -85 15 -27 29 -51 30 -52 1 -2 11 1 20 6 14 8 18 23 19 70 1 47 6 68 28
101 15 22 30 41 33 41 3 0 12 -16 20 -35z m4710 -225 c114 -69 249 -132 371
-173 l102 -34 -52 -7 c-29 -3 -184 -9 -346 -12 l-295 -7 26 34 c38 49 86 156
94 206 3 24 9 43 11 43 3 0 43 -23 89 -50z m-1080 -38 c61 -55 193 -127 303
-166 191 -68 657 -80 1408 -34 192 11 203 11 223 -7 35 -32 26 -67 -32 -122
-268 -252 -862 -455 -1543 -528 -287 -31 -964 -30 -1168 2 l-39 6 6 41 c4 23
9 128 12 235 l6 194 67 66 c151 152 453 307 699 360 2 1 28 -21 58 -47z m2121
-430 c120 -187 103 -392 -44 -537 -71 -71 -130 -100 -425 -209 -253 -94 -257
-95 -292 -81 -46 19 -160 19 -217 0 -53 -18 -110 -63 -149 -117 l-28 -38 -27
38 c-60 80 -139 122 -231 122 -106 0 -188 -42 -242 -122 l-26 -40 -16 23 c-36
56 -79 94 -135 121 -140 66 -318 17 -396 -109 l-22 -35 -15 28 c-21 42 -61 82
-112 112 -60 36 -164 38 -226 5 -41 -22 -102 -83 -124 -123 -11 -21 -13 -20
-40 23 -50 80 -139 126 -242 127 -37 0 -78 -4 -92 -10 -14 -5 -26 -8 -26 -6 0
2 22 50 49 106 27 57 60 139 72 183 l23 79 76 -5 c630 -46 1111 -25 1595 70
490 96 942 290 1135 488 l55 56 44 -48 c24 -26 60 -72 78 -101z m136 -494 c68
-96 119 -206 160 -346 l16 -52 -42 24 c-109 63 -250 31 -326 -74 l-29 -40 -20
32 c-51 82 -137 130 -232 129 -94 0 -154 -34 -221 -124 -27 -37 -28 -38 -39
-17 -6 12 -27 39 -46 60 l-35 38 58 22 c32 12 137 51 233 87 96 36 198 76 226
90 80 39 158 105 200 172 22 33 42 60 46 60 4 1 27 -27 51 -61z m-2521 -408
c50 -33 94 -103 103 -166 5 -36 55 -976 55 -1037 l0 -26 -46 27 c-42 24 -49
34 -68 93 -25 76 -61 128 -118 169 -43 31 -136 70 -168 70 -10 0 -21 4 -25 10
-3 5 -17 159 -32 341 -22 277 -24 340 -14 378 18 66 48 110 100 142 37 24 56
29 106 29 52 0 69 -5 107 -30z m1063 6 c56 -25 97 -68 121 -125 14 -32 15
-133 9 -919 -4 -485 -10 -946 -14 -1025 l-6 -142 -81 8 -82 9 -4 86 c-4 94
-28 159 -87 246 l-31 45 25 25 c35 35 35 117 0 185 -29 59 -99 123 -154 141
l-41 13 1 241 c1 133 4 426 8 651 6 394 7 412 28 450 64 119 192 165 308 111z
m1070 5 c78 -35 135 -122 135 -206 0 -16 -83 -490 -185 -1053 -102 -563 -189
-1049 -193 -1080 l-7 -57 -151 -3 c-171 -3 -159 -10 -143 88 4 30 60 510 123
1065 63 556 120 1036 125 1068 6 32 20 74 31 93 56 90 172 128 265 85z m-3037
-376 c-9 -9 -100 21 -125 41 l-28 24 60 54 60 54 18 -85 c11 -46 17 -86 15
-88z m-93 -24 c170 -35 321 -110 385 -190 76 -97 111 -211 140 -466 22 -195
39 -273 69 -334 23 -44 94 -109 129 -118 47 -11 120 5 226 50 156 68 240 62
266 -19 52 -156 -140 -296 -385 -281 -206 13 -389 127 -465 289 -58 125 -68
199 -61 443 3 83 -1 110 -18 156 -42 111 -149 195 -281 219 -30 6 -165 9 -300
8 -224 -1 -349 8 -384 29 -4 3 32 16 82 29 130 34 338 128 417 188 26 20 71
20 180 -3z m64 -305 c78 -28 137 -81 170 -149 16 -34 32 -78 34 -98 l5 -37
-71 -21 c-88 -26 -89 -26 -169 -1 -70 22 -147 80 -174 132 -8 16 -18 68 -21
115 l-6 86 94 -6 c52 -3 114 -12 138 -21z m1630 -787 c66 -14 134 -59 168
-110 24 -36 28 -53 28 -108 0 -81 -11 -86 -85 -35 -76 52 -111 64 -190 64 -39
0 -86 6 -105 14 -32 14 -65 59 -65 90 0 20 48 76 74 86 30 12 116 12 175 -1z"/>
<path d="M1920 5200 l0 -380 -380 0 -380 0 0 -255 0 -255 380 0 380 0 0 -380
0 -380 260 0 260 0 0 380 0 380 380 0 380 0 0 255 0 255 -380 0 -380 0 0 380
0 380 -260 0 -260 0 0 -380z m460 -50 l0 -380 380 0 380 0 0 -205 0 -205 -380
0 -380 0 0 -380 0 -380 -200 0 -200 0 0 380 0 380 -380 0 -380 0 0 205 0 205
380 0 380 0 0 380 0 380 200 0 200 0 0 -380z"/>
</g>
</svg>
