<?xml version="1.0" encoding="UTF-8" standalone="no"?>
<!DOCTYPE svg PUBLIC "-//W3C//DTD SVG 1.1//EN" "http://www.w3.org/Graphics/SVG/1.1/DTD/svg11.dtd">
<svg width="100%" height="100%" viewBox="0 0 512 512" version="1.1" xmlns="http://www.w3.org/2000/svg" xmlns:xlink="http://www.w3.org/1999/xlink" xml:space="preserve" xmlns:serif="http://www.serif.com/" style="fill-rule:evenodd;clip-rule:evenodd;stroke-linecap:round;stroke-linejoin:round;">
    <g id="Plus" transform="matrix(8.76691,0,0,8.76691,-20.0357,-29.7819)">
        <g id="path3141" transform="matrix(0.99849,0,0,0.99849,3.9962,4.8147)">
            <path d="M55.091,27.727C55.091,42.838 42.657,55.273 27.546,55.273C12.434,55.273 0,42.838 0,27.727C0,12.616 12.434,0.182 27.545,0.182C42.657,0.182 55.091,12.616 55.091,27.727Z" style="fill:url(#_Radial1);fill-rule:nonzero;"/>
        </g>
        <g id="path2168" transform="matrix(0.99849,0,0,0.99849,3.9962,4.8147)">
            <path d="M55.091,27.727C55.091,42.838 42.657,55.273 27.546,55.273C12.434,55.273 0,42.838 0,27.727C0,12.616 12.434,0.182 27.545,0.182C42.657,0.182 55.091,12.616 55.091,27.727Z" style="fill:url(#_Radial2);fill-rule:nonzero;stroke:rgb(0,190,49);stroke-width:2.5px;"/>
        </g>
        <g transform="matrix(5.66806,0,0,5.66806,-107.925,-72.3353)">
            <text x="21.122px" y="22.746px" style="font-family:'Arial-BoldMT', 'Arial', sans-serif;font-weight:700;font-size:12px;fill:white;">+</text>
        </g>
    </g>
    <defs>
        <radialGradient id="_Radial1" cx="0" cy="0" r="1" gradientUnits="userSpaceOnUse" gradientTransform="matrix(27.545,0,0,27.545,15.891,15.163)"><stop offset="0" style="stop-color:white;stop-opacity:1"/><stop offset="1" style="stop-color:rgb(0,240,56);stop-opacity:0"/></radialGradient>
        <radialGradient id="_Radial2" cx="0" cy="0" r="1" gradientUnits="userSpaceOnUse" gradientTransform="matrix(25.3105,26.0388,-19.7517,19.1991,16.0283,16.8471)"><stop offset="0" style="stop-color:rgb(155,255,179);stop-opacity:1"/><stop offset="1" style="stop-color:rgb(0,240,56);stop-opacity:1"/></radialGradient>
    </defs>
</svg>
