<?xml version="1.0" encoding="UTF-8" standalone="no"?>
<!DOCTYPE svg PUBLIC "-//W3C//DTD SVG 1.1//EN" "http://www.w3.org/Graphics/SVG/1.1/DTD/svg11.dtd">
<svg width="100%" height="100%" viewBox="0 0 260 260" version="1.1" xmlns="http://www.w3.org/2000/svg" xmlns:xlink="http://www.w3.org/1999/xlink" xml:space="preserve" xmlns:serif="http://www.serif.com/" style="fill-rule:evenodd;clip-rule:evenodd;stroke-linecap:round;stroke-linejoin:round;">
    <g id="Red-Cross-of-Shame" serif:id="Red Cross of Shame" transform="matrix(4.45312,0,0,4.45312,-277.962,-14.7266)">
        <g id="path3185" transform="matrix(0.99849,0,0,0.99849,63.996,4.8147)">
            <path d="M55.091,27.727C55.091,42.838 42.657,55.273 27.546,55.273C12.434,55.273 0,42.838 0,27.727C0,12.616 12.434,0.182 27.545,0.182C42.657,0.182 55.091,12.616 55.091,27.727Z" style="fill:url(#_Radial1);fill-rule:nonzero;"/>
        </g>
        <g id="path3187" transform="matrix(0.99849,0,0,0.99849,63.996,4.8147)">
            <path d="M55.091,27.727C55.091,42.838 42.657,55.273 27.546,55.273C12.434,55.273 0,42.838 0,27.727C0,12.616 12.434,0.182 27.545,0.182C42.657,0.182 55.091,12.616 55.091,27.727Z" style="fill:url(#_Radial2);fill-rule:nonzero;stroke:rgb(190,0,0);stroke-width:2.5px;"/>
        </g>
        <path id="path3207" d="M95.594,19.312C93.796,20.863 92.449,23.682 91.062,25.156C88.431,22.979 87.244,18.92 84.406,17.781C80.966,18.7 75.502,21.917 79.531,25.406C81.589,28.449 85.726,31.153 86.688,34.312C85.22,38.102 82.396,40.928 79.656,43.688C80.996,48.363 87.411,44.212 90,41.938C92.065,37.304 93.568,42.836 95.499,44.829C97.04,51.051 105.3,49.232 106.02,44.089C103.18,39.54 99.239,35.165 96.5,30.688C97.585,26.033 102.13,22.917 103.19,18.406C101.4,15.284 97.906,18.759 95.594,19.312Z" style="fill:white;fill-rule:nonzero;"/>
    </g>
    <defs>
        <radialGradient id="_Radial1" cx="0" cy="0" r="1" gradientUnits="userSpaceOnUse" gradientTransform="matrix(27.545,0,0,27.545,15.891,15.163)"><stop offset="0" style="stop-color:white;stop-opacity:1"/><stop offset="1" style="stop-color:rgb(0,240,56);stop-opacity:0"/></radialGradient>
        <radialGradient id="_Radial2" cx="0" cy="0" r="1" gradientUnits="userSpaceOnUse" gradientTransform="matrix(25.3105,26.0388,-19.7517,19.1991,16.0283,16.8471)"><stop offset="0" style="stop-color:rgb(255,155,155);stop-opacity:1"/><stop offset="1" style="stop-color:rgb(240,0,0);stop-opacity:1"/></radialGradient>
    </defs>
</svg>
