<?xml version="1.0" encoding="UTF-8" standalone="no"?>
<!DOCTYPE svg PUBLIC "-//W3C//DTD SVG 1.1//EN" "http://www.w3.org/Graphics/SVG/1.1/DTD/svg11.dtd">
<svg width="100%" height="100%" viewBox="0 0 260 260" version="1.1" xmlns="http://www.w3.org/2000/svg" xmlns:xlink="http://www.w3.org/1999/xlink" xml:space="preserve" xmlns:serif="http://www.serif.com/" style="fill-rule:evenodd;clip-rule:evenodd;stroke-linecap:round;stroke-linejoin:round;">
    <g id="Tick" transform="matrix(4.04421,0,0,4.04421,2.607,-3.67481)">
        <g id="path3141" transform="matrix(0.99849,0,0,0.99849,3.9962,4.8147)">
            <path d="M55.091,27.727C55.091,42.838 42.657,55.273 27.546,55.273C12.434,55.273 0,42.838 0,27.727C0,12.616 12.434,0.182 27.545,0.182C42.657,0.182 55.091,12.616 55.091,27.727Z" style="fill:url(#_Radial1);fill-rule:nonzero;"/>
        </g>
        <g id="path2168" transform="matrix(0.99849,0,0,0.99849,3.9962,4.8147)">
            <path d="M55.091,27.727C55.091,42.838 42.657,55.273 27.546,55.273C12.434,55.273 0,42.838 0,27.727C0,12.616 12.434,0.182 27.545,0.182C42.657,0.182 55.091,12.616 55.091,27.727Z" style="fill:url(#_Radial2);fill-rule:nonzero;stroke:rgb(0,190,49);stroke-width:2.5px;"/>
        </g>
        <path id="path3167" d="M47.25,15.71C37.925,18.219 29.623,25.724 28,35.491C24.075,32.885 20.783,27.536 16.031,27.273C12.894,28.906 5.597,33.139 11.75,35.616C17.255,39.894 25.502,43.747 26.812,51.179C29.502,53.692 32.979,50.12 35.781,49.179C39.255,43.556 35.353,35.809 38.719,29.835C40.457,24.201 46.539,21.921 50,17.835C49.997,16.352 48.639,15.325 47.25,15.71Z" style="fill:white;fill-rule:nonzero;"/>
    </g>
    <defs>
        <radialGradient id="_Radial1" cx="0" cy="0" r="1" gradientUnits="userSpaceOnUse" gradientTransform="matrix(27.545,0,0,27.545,15.891,15.163)"><stop offset="0" style="stop-color:white;stop-opacity:1"/><stop offset="1" style="stop-color:rgb(0,240,56);stop-opacity:0"/></radialGradient>
        <radialGradient id="_Radial2" cx="0" cy="0" r="1" gradientUnits="userSpaceOnUse" gradientTransform="matrix(25.3105,26.0388,-19.7517,19.1991,16.0283,16.8471)"><stop offset="0" style="stop-color:rgb(155,255,179);stop-opacity:1"/><stop offset="1" style="stop-color:rgb(0,240,56);stop-opacity:1"/></radialGradient>
    </defs>
</svg>
