<?xml version="1.0" encoding="UTF-8" standalone="no"?>
<!DOCTYPE svg PUBLIC "-//W3C//DTD SVG 1.1//EN" "http://www.w3.org/Graphics/SVG/1.1/DTD/svg11.dtd">
<svg width="100%" height="100%" viewBox="0 0 441 441" version="1.1" xmlns="http://www.w3.org/2000/svg" xmlns:xlink="http://www.w3.org/1999/xlink" xml:space="preserve" xmlns:serif="http://www.serif.com/" style="fill-rule:evenodd;clip-rule:evenodd;stroke-linejoin:round;stroke-miterlimit:1.41421;">
    <g transform="matrix(1,0,0,1,1,1)">
        <path d="M409.133,109.203C389.525,75.611 362.928,49.014 329.335,29.407C295.736,9.801 259.058,0 219.273,0C179.492,0 142.803,9.801 109.21,29.407C75.615,49.011 49.018,75.608 29.41,109.203C9.801,142.8 0,179.489 0,219.267C0,259.047 9.804,295.73 29.407,329.329C49.014,362.921 75.611,389.518 109.206,409.127C142.803,428.732 179.489,438.534 219.269,438.534C259.049,438.534 295.739,428.732 329.334,409.127C362.927,389.525 389.523,362.921 409.129,329.329C428.732,295.733 438.532,259.045 438.532,219.267C438.533,179.485 428.732,142.795 409.133,109.203ZM255.82,356.309C255.82,358.971 254.958,361.162 253.247,362.872C251.543,364.583 249.352,365.439 246.69,365.439L191.867,365.439C189.203,365.439 187.013,364.583 185.3,362.872C183.586,361.161 182.73,358.971 182.73,356.309L182.73,301.486C182.73,298.824 183.585,296.633 185.3,294.923C187.013,293.215 189.203,292.36 191.867,292.36L246.69,292.36C249.352,292.36 251.543,293.215 253.247,294.923C254.958,296.634 255.82,298.824 255.82,301.486L255.82,356.309ZM325.338,187.574C322.956,194.617 320.294,200.378 317.344,204.849C314.395,209.322 310.157,213.891 304.635,218.552C299.125,223.215 294.744,226.548 291.5,228.55C288.27,230.545 283.602,233.263 277.518,236.685C271.235,240.298 266.053,245.011 261.963,250.819C257.87,256.623 255.824,261.332 255.824,264.945C255.824,267.615 254.962,269.804 253.25,271.516C251.543,273.227 249.353,274.082 246.69,274.082L191.87,274.082C189.206,274.082 187.016,273.227 185.303,271.516C183.588,269.804 182.735,267.615 182.735,264.945L182.735,254.666C182.735,241.914 187.728,229.965 197.722,218.834C207.716,207.698 218.708,199.466 230.701,194.136C239.831,189.95 246.305,185.666 250.111,181.289C253.923,176.912 255.826,171.101 255.826,163.872C255.826,157.589 252.254,151.975 245.115,147.023C237.976,142.076 229.845,139.602 220.706,139.602C210.806,139.602 202.624,141.887 196.151,146.457C189.868,151.022 181.686,159.779 171.597,172.72C169.884,175.006 167.504,176.151 164.458,176.151C162.174,176.151 160.365,175.581 159.034,174.442L121.35,145.89C116.973,142.463 116.212,138.468 119.064,133.899C143.43,93.357 178.736,73.086 224.986,73.086C241.549,73.086 257.73,76.989 273.527,84.794C289.323,92.595 302.506,103.636 313.073,117.913C323.627,132.185 328.918,147.7 328.918,164.45C328.904,172.824 327.71,180.529 325.338,187.574Z" style="fill:rgb(60,60,60);fill-rule:nonzero;"/>
    </g>
</svg>
