<?xml version="1.0" encoding="UTF-8"?>
<svg id="Layer_1" data-name="Layer 1" xmlns="http://www.w3.org/2000/svg" width="221.8" height="91.1" viewBox="0 0 221.8 91.1">
  <path id="Roo" d="M178.79,11.9h-4s-1.5-.4,0-.9,1.8-.2,2.4-.6,1.4-2.6,2.4-3.3,3.5-1.8,5.2,1,1.4,5.2.9,7.4-5.1,15.4-5.1,15.4c0,0-1.8,4.7.1,6.9s5.6.9,6.9.3,6.9-3,12.9-1,21.2,11.5,21.3,24.5c0,0,.4,2.9-3,2.6s-5.8-1-6.2-1.2-4.4-1.2-5.5,3.1c-1.2,4.2-1.6,19.8-1.6,19.8,0,0,0,3.1-3.2,3s-11.6,0-11.6,0c0,0,.5-1.8,3.3-2.2s5.7-.8,6-.8,2.3-.8,3-3.1,0-14.5-.1-14.6-.9-7.1-6.2-7.8c0,0,.9,1.9-.1,3-1,1.1-2.7,3.5-3.2,4.3s-4.3,8.5-4.8,9.6-3.7,6.7-3.8,6.9-1,1.6-.7,2.7-.2,1.7-.8,1.6-13.7,0-13.7,0c0,0,1.8-1.9,5-2.2s3.1,0,4.2-.5,3.1-2.2,4.4-4,7.4-14.4,7.4-14.4c0,0,1.1-4.4-.2-6.6-1.3-2.1-1.4-1.7-2.8-1.6s-1.9.7-5-.7-8-6.2-9.3-8.3c-1.4-2.1-5.8-10.9-2.1-18.2s8.3-15.1,9.2-16.3,1.5-3.4-1.4-3.8h-.2Z" style="fill: #000; stroke-width: 0px;"/>
  <path d="M66.69,19.7c.6,1.8-6.6,13.6-11.1,17.5s-14.4,9.7-13.4,25.7,0,19.3-8.6,21-27.8,1.5-29.6,1.8-8,2.5,0,2.9,30.6.4,36.2,0,9-5.1,10.1-8.6,1.4-9.3,7-10.1c0,0,1.2,5.5-.8,10.5s-3.3,8.6,1.9,8.5,29,0,29,0c0,0-2.1-5-12.9-3.8s-11.9,1.8-12.3-1.4.8-12.1,3.3-13.8c2.5-1.8,1.8-12.1,1.9-13s1.8-5.6,2.3-6.4,2.7-4.3,2.9-5.6c0,0,6.8,0,6,9.5,0,0,.6,1.7,1.6,0s2.5-9.1-5.5-15.3c0,0,0-3.5,1.5-4s1.9-3.2,2.7-4.1,5.4-2.7,5.4-2.7c0,0,.8-.4,2.9-.3s3.3.3,3.6-.3-.5-2.1-2.5-2.4-1.7-.3-4.4.2-6.3,2.6-6.3,2.6c0,0-1.6.4-1.7-1s-.4-3.8-.4-4.7-1.5-3.4-1.1-4.2,1.5-1.3,3.8-1.2,2.7-.6,3.3-1,1.2-2.2.4-2.9-4.1-2-4.1-2.6,0-1.4-.6-2-2.2-1.3-2.1-1.8,1-5.7.4-6.1S75.19,0,74.59.6s-2.6,3-3.2,4.7-1.6,0-1.6,0c0,0-2.1-2.6-3.9-3.1s-2.3-1.3-1.8.9c.5,2.2,3.8,5.1,3.6,6.2s-.3,1.8-.9,3.5,0,2.1,0,4-.5,3.1-.5,3.1l.4-.2Z" style="fill: #000; stroke-width: 0px;"/>
  <g>
    <path d="M146.69,87.8s-15-.1-35-20.2c-20.1-20.1-24.3-60.6-6.2-58.3,10.5,1.4,11.9,15.5,12.8,20.9s4.7,19.1,15.1,27.2c6.8,5.3,19.3,10.5,23,15.1,7.6,9.6.6,16.5-9.7,15.3h0Z" style="fill: #000; stroke-width: 0px;"/>
    <path d="M103.19,10.6s-6.8-.7-8.9-9c0,0,5.2.3,9.2,5.6,0,0-2.2-3.4-.9-7.2,0,0,3.3,1,3.2,7.3,0,0-.2-3.1,4.2-4.4,0,0,1.4,4.3-4,7.6" style="fill: #000; stroke-width: 0px;"/>
    <path d="M157.69,81.3s3.9-5.6,12.2-3.4c0,0-2.7,4.4-9.3,5.4,0,0,4-.2,6.7,2.7,0,0-2.5,2.4-8-.7,0,0,2.8,1.3,1.8,5.8,0,0-4.4-.8-4.8-7.2" style="fill: #000; stroke-width: 0px;"/>
  </g>
</svg>