<?xml version="1.0" encoding="UTF-8"?>
<svg id="Layer_1" data-name="Layer 1" xmlns="http://www.w3.org/2000/svg" width="175.59" height="88.38" viewBox="0 0 175.59 88.38">
  <g id="Smoke">
    <path d="M115.88,27.08s-4.4-2.3-1.6-6.5-.5-4-.5-4c0,0-2.5,0-1.6,3.4,0,0-2.5-4.2,1.1-5.5s6.1,3.6,3,7-.5,5.7-.5,5.7l.1-.1Z" style="fill: #ddd; stroke: #000; stroke-miterlimit: 10; stroke-width: .4px;"/>
    <path d="M110.08,41.98s0-2.2,6.2-4,3.2-4.1,3.2-4.1c0,0-2.1-1.1-2.3,1.5,0,0-.2-2.9,2.2-3s3.2,3.8,1,4.9-9.3,1.4-10.4,4.7h.1Z" style="fill: #ddd; stroke: #000; stroke-miterlimit: 10; stroke-width: .4px;"/>
    <path d="M114.08,34.48s-2-2.6,3.6-4.9c5-2,5.7-6.8,5.1-8.5-.9-2.9-2.5-3.6-3.2-4.7s-2-4.2.4-6.2,6.7-.9,7,2.3c.3,3.2-1.9,3-1.9,3,0,0,1.5-.7,1.3-2.1-.4-3-4.4-3.4-5.6-1-.9,1.9,1.2,2.9,2,3.7.1.1,3.1,1.9,3.6,5.1s-1.7,6.9-5,8.3-8.2,2.2-7.3,5.1v-.1Z" style="fill: #ddd; stroke: #000; stroke-miterlimit: 10; stroke-width: .4px;"/>
  </g>
  <g id="BBQ">
    <path d="M85.28,32.68l-1.2-2s-1-1.1.6-2.4,5.9-3.6,5.9-3.6c0,0,1.5-.8,2.5.3l1.8,2.2-1.5.6-1.1-1.6s-.2-.4-1.1,0c0,0-4,1.9-5.5,3.3,0,0-.5.3,0,1l.8,1.4-1.1,1-.1-.2Z" style="fill: #aaa; stroke: #000; stroke-miterlimit: 10; stroke-width: .4px;"/>
    <path d="M83.08,51.18l29.7-20.5-6.2-4s-5.8-3.9-16.6,2.4c-10.8,6.3-8,16.3-6.9,22.1Z" style="fill: #aaa; stroke: #000; stroke-miterlimit: 10; stroke-width: .4px;"/>
    <path d="M89.68,52.88h26.4s-1.3-6.5-3.8-6.7c0,0,1.7,2,.6,4.1,0,0-1.2,1.4-1.7,0,0,0,.7-3.5-.8-4.9,0,0,1.3,3.4-.9,5.6s-3.6-.8-1.6-2.2c2-1.5,0-5.2,0-5.2,0,0-1.1-2.5,1.1-3.1,0,0-3.3.6-2,4.8s-4.9,2.3-2.1-.5c0,0-1.9.4-1,3.2s-.8,4.1-2.8,3.9-1.1-2.7,0-3.2,2-3.7.5-5.3c0,0,1.8,2.8-1.8,5.1-3.6,2.3-3.4-2.1-1.1-3.2,0,0-2.8.4-2.7,4.1s-4.7,2.6-2.9-.6c0,0-3.4,1.8-3.5,4.2l.1-.1Z" style="fill: #ff9000; stroke: #000; stroke-miterlimit: 10; stroke-width: .4px;"/>
    <path d="M110.08,65.58l4.1,22.6h-2.3l-2.2-13h-13l-1,3.7h-2l2.7-13.5s2.5.7,2.3.6-1.6,8-1.6,8c0,0,12.1.1,12.4,0s-1.2-7.9-1.2-7.9l1.9-.5h-.1Z" style="fill: #aaa; stroke: #000; stroke-miterlimit: 10; stroke-width: .4px;"/>
    <g>
      <circle cx="94.48" cy="83.18" r="5" style="fill: #000; stroke-width: 0px;"/>
      <circle cx="94.48" cy="83.18" r="3.3" style="fill: #aaa; stroke: #000; stroke-miterlimit: 10; stroke-width: .4px;"/>
    </g>
    <path d="M85.68,52.68s34.6-.3,34.6,0v.3s-2.4,10.4-10.2,12.8-22.9.5-24.4-13.1Z" style="fill: #aaa; stroke: #000; stroke-miterlimit: 10; stroke-width: .4px;"/>
  </g>
  <path d="M65.68,19.58c.6,1.7-6.5,13.4-10.9,17.2s-14.1,9.6-13.2,25.2,0,18.9-8.4,20.6c-8.4,1.7-27.3,1.4-29,1.7s-7.8,2.5,0,2.9,30,.4,35.5,0,8.8-5,9.9-8.4,1.3-9.2,6.9-9.9c0,0,1.1,5.3-.8,10.3s-3.3,8.4,1.9,8.3,28.5,0,28.5,0c0,0-2.1-4.9-12.6-3.7-10.5,1.1-11.7,1.7-12-1.3s.8-11.8,3.2-13.6c2.4-1.8,1.7-11.8,1.9-12.8s1.7-5.5,2.3-6.3,2.7-4.2,2.9-5.5c0,0,6.7,0,5.9,9.3,0,0,.6,1.7,1.5,0s2.5-8.9-5.3-15c0,0,0-3.4,1.5-4s1.9-3.2,2.7-4,5.3-2.7,5.3-2.7c0,0,.8-.4,2.8-.3s3.2.3,3.5-.3-.5-2.1-2.5-2.4-1.6-.3-4.3.2-6.2,2.6-6.2,2.6c0,0-1.5.4-1.6-1s-.4-3.7-.4-4.6-1.4-3.3-1.1-4.1,1.4-1.2,3.7-1.1,2.7-.6,3.2-1,1.1-2.2.4-2.9-4-2-4-2.6,0-1.3-.6-2-2.2-1.2-2.1-1.7,1-5.6.4-6-.3-.6-.9,0c-.6.6-2.6,3-3.2,4.6s-1.5,0-1.5,0c0,0-2.1-2.6-3.8-3.1s-2.3-1.2-1.8.9c.5,2.1,3.7,5,3.5,6.1s-.3,1.8-.9,3.4,0,2.1,0,3.9-.5,3-.5,3l.2.1Z" style="fill: #ff9000; stroke: #000; stroke-miterlimit: 10; stroke-width: .6px;"/>
  <path id="Roo" d="M132.98,11.68h-3.9s-1.5-.4,0-.9,1.8-.2,2.3-.6,1.4-2.6,2.4-3.2,3.5-1.8,5.1,1,1.4,5.1.9,7.2-5,15.1-5,15.1c0,0-1.8,4.6.1,6.7s5.5.9,6.8.3,6.8-2.9,12.7-1,20.8,11.3,20.9,24.1c0,0,.4,2.9-2.9,2.5-3.3-.3-5.7-1-6.1-1.1s-4.3-1.1-5.4,3c-1.1,4.2-1.6,19.4-1.6,19.4,0,0,0,3.1-3.1,2.9s-11.4,0-11.4,0c0,0,.5-1.8,3.2-2.2s5.6-.8,5.9-.8,2.3-.8,2.9-3.1c.6-2.2,0-14.2-.1-14.3s-.9-7-6.1-7.7c0,0,.9,1.9-.1,3-1,1.1-2.6,3.4-3.1,4.2s-4.2,8.4-4.7,9.4-3.6,6.6-3.8,6.7-1,1.6-.7,2.7-.2,1.6-.8,1.6h-13.4s1.7-1.9,4.9-2.1c3.2-.2,3.1,0,4.2-.5s3.1-2.1,4.3-3.9,7.3-14.1,7.3-14.1c0,0,1.1-4.3-.2-6.4s-1.4-1.6-2.8-1.5-1.9.7-4.9-.7c-3.1-1.4-7.8-6.1-9.2-8.2s-5.7-10.7-2.1-17.8,8.1-14.8,9-16,1.5-3.4-1.4-3.7h-.1Z" style="fill: #ff9000; stroke: #000; stroke-miterlimit: 10; stroke-width: .6px;"/>
</svg>