<?xml version="1.0" encoding="UTF-8"?>
<svg id="Layer_1" data-name="Layer 1" xmlns="http://www.w3.org/2000/svg" viewBox="0 0 320.67 143.92">
  <path d="M1.28,81.39c14.75-8.21,165.95-152.48,318.46,8.32l-48.39,1.62-2.8,51.5s-94.53-113.17-223.92,0l10.36-54.34L1.28,81.39Z" style="fill: #f9cd60; stroke: #000; stroke-miterlimit: 10; stroke-width: .82px;"/>
  <g>
    <g id="Smoke">
      <path d="M181.63,34.55s-5.57-2.97-2.01-8.34c3.08-4.65-.61-5.05-.61-5.05,0,0-3.22,0-2.01,4.32,0,0-3.13-5.32,1.43-7.07,4.13-1.58,7.73,4.59,3.77,8.88-3.3,3.57-.58,7.26-.58,7.26h0Z" style="fill: #ddd; stroke: #010101; stroke-miterlimit: 10; stroke-width: .81px;"/>
      <path d="M174.24,53.49s.03-2.86,7.93-5.13,4.13-5.24,4.13-5.24c0,0-2.63-1.42-2.87,1.95,0,0-.2-3.73,2.83-3.79,3.87-.07,4.11,4.83,1.22,6.2s-11.87,1.73-13.23,6.01h-.01Z" style="fill: #ddd; stroke: #010101; stroke-miterlimit: 10; stroke-width: .81px;"/>
      <path d="M179.34,43.93s-2.55-3.31,4.53-6.24c6.31-2.61,7.26-8.62,6.56-10.83-1.16-3.65-3.17-4.57-4.08-6.03-1.13-1.81-2.59-5.34.49-7.85s8.59-1.17,8.97,2.87c.28,3.03-2.49,3.85-2.49,3.85,0,0,1.87-.83,1.65-2.65-.46-3.83-5.65-4.39-7.1-1.3-1.13,2.41,1.57,3.63,2.54,4.73.14.15,3.92,2.36,4.65,6.44.8,4.45-2.22,8.78-6.43,10.57s-10.51,2.84-9.29,6.44h0Z" style="fill: #ddd; stroke: #010101; stroke-miterlimit: 10; stroke-width: .81px;"/>
    </g>
    <g id="BBQ">
      <path d="M142.63,41.65l-1.5-2.6s-1.3-1.34.75-3.11,7.47-4.63,7.47-4.63c0,0,1.89-1.02,3.17.37l2.27,2.77-1.94.72-1.36-2.05s-.3-.49-1.4,0c0,0-5.05,2.4-7,4.15,0,0-.67.42-.12,1.27l1.03,1.82-1.35,1.27-.02.02Z" style="fill: #ababab; stroke: #010101; stroke-miterlimit: 10; stroke-width: .81px;"/>
      <path d="M139.73,65.28l37.9-26.12-7.95-5.11s-7.4-5.02-21.19,3.01c-13.79,8.04-10.23,20.82-8.77,28.22h0Z" style="fill: #ababab; stroke: #010101; stroke-miterlimit: 10; stroke-width: .81px;"/>
      <path d="M148.22,67.43h33.61s-1.7-8.23-4.87-8.59c0,0,2.15,2.56.77,5.2,0,0-1.54,1.83-2.11.04,0,0,.93-4.42-.97-6.29,0,0,1.7,4.38-1.18,7.18-2.88,2.8-4.59-.97-2.07-2.84s-.04-6.58-.04-6.58c0,0-1.42-3.25,1.42-3.98,0,0-4.26.73-2.56,6.17,1.7,5.44-6.21,2.88-2.72-.69,0,0-2.48.57-1.22,4.14,1.26,3.57-1.01,5.2-3.61,4.95s-1.46-3.41.12-4.1,2.52-4.67.61-6.82c0,0,2.27,3.57-2.27,6.49s-4.3-2.72-1.38-4.14c0,0-3.61.54-3.41,5.2s-5.97,3.37-3.65-.73c0,0-4.38,2.25-4.46,5.39h0Z" style="fill: #f78f1e; stroke: #010101; stroke-miterlimit: 10; stroke-width: .81px;"/>
      <path d="M174.16,83.58l5.27,28.76h-2.98l-2.8-16.58h-16.62l-1.24,4.71-2.61-.08,3.43-17.13s3.16.85,2.93.8-2.09,10.24-2.09,10.24c0,0,15.41.15,15.83,0,.09-.03-1.54-10.11-1.54-10.11l2.42-.6h0Z" style="fill: #ababab; stroke: #010101; stroke-miterlimit: 10; stroke-width: .81px;"/>
      <g>
        <circle cx="154.31" cy="105.98" r="6.39" style="fill: #010101; stroke-width: 0px;"/>
        <circle cx="154.31" cy="105.98" r="4.25" style="fill: #ababab; stroke: #010101; stroke-miterlimit: 10; stroke-width: .81px;"/>
      </g>
      <path d="M143.11,67.19s44.11-.37,44.11,0v.37s-3.01,13.24-13.06,16.35-29.13.64-31.05-16.71h0Z" style="fill: #ababab; stroke: #010101; stroke-miterlimit: 10; stroke-width: .81px;"/>
    </g>
    <path d="M117.65,24.93c.73,2.19-8.28,17.05-13.88,21.92-5.6,4.87-18.02,12.18-16.8,32.15s0,24.11-10.72,26.3c-10.72,2.19-34.8,1.82-37.02,2.19-1.46.24-9.98,3.17,0,3.65,9.98.49,38.24.49,45.3,0s11.2-6.33,12.66-10.72c1.46-4.38,1.7-11.69,8.77-12.66,0,0,1.46,6.82-.97,13.15-2.44,6.33-4.17,10.72,2.42,10.59s36.3,0,36.3,0c0,0-2.68-6.21-16.07-4.75-13.39,1.46-14.86,2.19-15.34-1.7-.49-3.9.97-15.1,4.14-17.29s2.19-15.1,2.44-16.32,2.19-7.06,2.92-8.04,3.41-5.36,3.65-7.06c0,0,8.52-.12,7.55,11.87,0,0,.73,2.13,1.95,0s3.17-11.39-6.82-19.18c0,0,.06-4.32,1.89-5.05s2.44-4.02,3.41-5.11,6.7-3.41,6.7-3.41c0,0,.97-.49,3.59-.37,2.62.12,4.08.37,4.44-.37s-.61-2.68-3.17-3.04-2.07-.37-5.48.24c-3.41.61-7.91,3.29-7.91,3.29,0,0-1.95.49-2.07-1.22s-.49-4.75-.49-5.84-1.83-4.26-1.34-5.24,1.83-1.58,4.75-1.46,3.41-.73,4.14-1.22,1.46-2.8.49-3.65-5.11-2.56-5.11-3.29-.12-1.7-.73-2.56-2.8-1.58-2.68-2.19,1.22-7.18.49-7.67-.37-.73-1.1,0-3.29,3.77-4.02,5.84c-.73,2.07-1.95,0-1.95,0,0,0-2.68-3.29-4.87-3.9s-2.92-1.58-2.31,1.1c.61,2.68,4.75,6.33,4.51,7.79s-.37,2.31-1.1,4.38,0,2.68.12,4.99-.67,3.84-.67,3.84v.02Z" style="fill: #f78f1e; stroke: #010101; stroke-miterlimit: 10; stroke-width: .81px;"/>
    <path id="Roo" d="M203.4,14.85h-5.03s-1.91-.49,0-1.1,2.31-.28,2.96-.81,1.79-3.29,3-4.1,4.42-2.23,6.49,1.3c2.07,3.53,1.73,6.49,1.18,9.23s-6.33,19.24-6.33,19.24c0,0-2.25,5.91.18,8.58s7,1.1,8.65.37,8.65-3.71,16.13-1.22c7.49,2.5,26.55,14.37,26.61,30.69,0,0,.49,3.65-3.71,3.23s-7.25-1.28-7.73-1.46-5.48-1.46-6.94,3.84-2.01,24.78-2.01,24.78c0,0,.12,3.9-3.96,3.71s-14.55,0-14.55,0c0,0,.67-2.26,4.14-2.75s7.18-.97,7.55-1.04,2.92-1.04,3.71-3.9-.06-18.08-.18-18.2-1.1-8.89-7.73-9.8c0,0,1.1,2.37-.18,3.77s-3.35,4.32-3.96,5.36-5.36,10.65-6.03,11.99-4.63,8.4-4.81,8.58-1.22,2.01-.91,3.41-.24,2.07-1.04,2.01-17.11-.12-17.11-.12c0,0,2.19-2.44,6.27-2.74,4.08-.3,3.9,0,5.3-.67s3.9-2.74,5.48-4.99,9.25-17.96,9.25-17.96c0,0,1.34-5.54-.24-8.22s-1.77-2.07-3.53-1.95-2.37.91-6.27-.85-9.98-7.79-11.69-10.41-7.25-13.64-2.68-22.71,10.35-18.87,11.45-20.4c1.1-1.52,1.91-4.3-1.73-4.71v.02Z" style="fill: #f78f1e; stroke: #010101; stroke-miterlimit: 10; stroke-width: .81px;"/>
  </g>
</svg>