<?xml version="1.0" encoding="UTF-8"?>
<svg id="Layer_1" data-name="Layer 1" xmlns="http://www.w3.org/2000/svg" width="222.9" height="88.68" viewBox="0 0 222.9 88.68">
  <path id="Roo" d="M179.89,11.68h-4s-1.5-.4,0-.9,1.9-.2,2.4-.6,1.4-2.6,2.4-3.3,3.5-1.8,5.2,1,1.4,5.2.9,7.4-5.1,15.4-5.1,15.4c0,0-1.8,4.7.1,6.9s5.6.9,6.9.3,6.9-3,12.9-1,21.2,11.5,21.3,24.5c0,0,.4,2.9-3,2.6s-5.8-1-6.2-1.2-4.4-1.2-5.6,3.1c-1.2,4.3-1.6,19.8-1.6,19.8,0,0,0,3.1-3.2,3s-11.6,0-11.6,0c0,0,.5-1.8,3.3-2.2s5.7-.8,6-.8,2.3-.8,3-3.1,0-14.5-.1-14.6-.9-7.1-6.2-7.8c0,0,.9,1.9-.1,3-1,1.1-2.7,3.5-3.2,4.3s-4.3,8.5-4.8,9.6-3.7,6.7-3.8,6.9-1,1.6-.7,2.7-.2,1.7-.8,1.6-13.7,0-13.7,0c0,0,1.8-1.9,5-2.2s3.1,0,4.2-.5,3.1-2.2,4.4-4,7.4-14.4,7.4-14.4c0,0,1.1-4.4-.2-6.6s-1.4-1.7-2.8-1.6-1.9.7-5-.7-8-6.2-9.3-8.3-5.8-10.9-2.1-18.2,8.3-15.1,9.2-16.3,1.5-3.4-1.4-3.8h-.1Z" style="fill: #fff; stroke-width: 0px;"/>
  <path d="M66.69,19.48c.6,1.8-6.6,13.6-11.1,17.5-4.5,3.9-14.4,9.7-13.4,25.7s0,19.3-8.6,21-27.8,1.5-29.6,1.8-8,2.5,0,2.9,30.6.4,36.2,0,9-5.1,10.1-8.6,1.4-9.3,7-10.1c0,0,1.2,5.5-.8,10.5-1.9,5.1-3.3,8.6,1.9,8.5s29,0,29,0c0,0-2.1-5-12.9-3.8-10.7,1.2-11.9,1.8-12.3-1.4s.8-12.1,3.3-13.8,1.8-12.1,1.9-13,1.8-5.6,2.3-6.4,2.7-4.3,2.9-5.6c0,0,6.8,0,6,9.5,0,0,.6,1.7,1.6,0s2.5-9.1-5.5-15.3c0,0,0-3.5,1.5-4s1.9-3.2,2.7-4.1,5.4-2.7,5.4-2.7c0,0,.8-.4,2.9-.3s3.3.3,3.6-.3-.5-2.1-2.5-2.4-1.7-.3-4.4.2-6.3,2.6-6.3,2.6c0,0-1.6.4-1.7-1s-.4-3.8-.4-4.7-1.5-3.4-1.1-4.2,1.5-1.3,3.8-1.2,2.7-.6,3.3-1,1.2-2.2.4-2.9-4.1-2-4.1-2.6,0-1.4-.6-2-2.2-1.3-2.1-1.8,1-5.7.4-6.1-.3-.6-.9,0c-.6.6-2.6,3-3.2,4.7-.6,1.7-1.6,0-1.6,0,0,0-2.1-2.6-3.9-3.1s-2.3-1.3-1.9.9c.4,2.2,3.8,5.1,3.6,6.2s-.3,1.9-.9,3.5,0,2.1,0,4-.5,3.1-.5,3.1l.5-.2Z" style="fill: #fff; stroke-width: 0px;"/>
  <g>
    <path d="M160.39,43.98s-6.7,9.5-28.6,13.5c-21.8,3.9-49.7-11.4-40.2-22,5.5-6.1,15.2-.8,19.1,1.1s14.3,5.5,24.2,2.4c6.5-2,15.3-7.7,19.9-8,9.5-.6,10.9,6.9,5.5,13h.1Z" style="fill: #fff; stroke-width: 0px;"/>
    <path d="M91.49,37.58s-3.4,4.1-9.7,1.7c0,0,2.5-3.2,7.7-3.4,0,0-3.1-.1-5-2.6,0,0,2.1-1.7,6.1,1.2,0,0-2.1-1.2-.9-4.6,0,0,3.4,1,3.1,6" style="fill: #fff; stroke-width: 0px;"/>
    <path d="M161.19,34.08s-1.9-5,3.3-9.3c0,0,1.6,3.7-.7,8.4,0,0,1.6-2.7,4.7-3.2,0,0,.4,2.7-4,4.8,0,0,2.1-1.2,4.5,1.4,0,0-2.5,2.5-6.7-.1" style="fill: #fff; stroke-width: 0px;"/>
  </g>
</svg>