<?xml version="1.0" encoding="UTF-8"?>
<svg id="Layer_1" data-name="Layer 1" xmlns="http://www.w3.org/2000/svg" width="174.36" height="87.85" viewBox="0 0 174.36 87.85">
  <g id="Smoke">
    <path d="M114.85,26.45s-4.4-2.3-1.6-6.6c2.4-3.7-.5-4-.5-4,0,0-2.5,0-1.6,3.4,0,0-2.5-4.2,1.1-5.6s6.1,3.6,3,7-.5,5.7-.5,5.7l.1.1Z" style="fill: #fff; stroke-width: 0px;"/>
    <path d="M109.05,41.45s0-2.3,6.2-4,3.3-4.1,3.3-4.1c0,0-2.1-1.1-2.3,1.5,0,0-.2-2.9,2.2-3s3.2,3.8,1,4.9-9.4,1.4-10.4,4.7Z" style="fill: #fff; stroke-width: 0px;"/>
    <path d="M113.05,33.85s-2-2.6,3.6-4.9,5.7-6.8,5.2-8.5c-.9-2.9-2.5-3.6-3.2-4.7s-2-4.2.4-6.2,6.8-.9,7.1,2.3c.3,3.2-2,3-2,3,0,0,1.5-.7,1.3-2.1-.4-3-4.5-3.5-5.6-1s1.2,2.9,2,3.7c.1.1,3.1,1.9,3.7,5.1s-1.8,6.9-5.1,8.3-8.3,2.2-7.3,5.1l-.1-.1Z" style="fill: #fff; stroke-width: 0px;"/>
  </g>
  <g id="BBQ">
    <path d="M84.15,32.05l-1.2-2s-1-1.1.6-2.4,5.9-3.6,5.9-3.6c0,0,1.5-.8,2.5.3l1.8,2.2-1.5.6-1.1-1.6s-.2-.4-1.1,0c0,0-4,1.9-5.5,3.3,0,0-.5.3,0,1l.8,1.4-1.1,1-.1-.2Z" style="fill: #fff; stroke-width: 0px;"/>
    <path d="M81.85,50.75l29.9-20.6-6.3-4s-5.8-4-16.7,2.4c-10.9,6.3-8.1,16.4-6.9,22.2Z" style="fill: #fff; stroke-width: 0px;"/>
    <path d="M88.55,52.45h26.5s-1.3-6.5-3.8-6.8c0,0,1.7,2,.6,4.1,0,0-1.2,1.4-1.7,0,0,0,.7-3.5-.8-5,0,0,1.3,3.5-.9,5.7-2.3,2.2-3.6-.8-1.6-2.2s0-5.2,0-5.2c0,0-1.1-2.6,1.1-3.1,0,0-3.4.6-2,4.9s-4.9,2.3-2.1-.5c0,0-2,.4-1,3.3s-.8,4.1-2.8,3.9-1.2-2.7,0-3.2,2-3.7.5-5.4c0,0,1.8,2.8-1.8,5.1s-3.4-2.1-1.1-3.3c0,0-2.8.4-2.7,4.1s-4.7,2.7-2.9-.6c0,0-3.5,1.8-3.5,4.2Z" style="fill: #fff; stroke-width: 0px;"/>
    <path d="M109.05,65.15l4.2,22.7h-2.4l-2.2-13.1h-13.1l-1,3.7h-2.1l2.7-13.6s2.5.7,2.3.6-1.6,8.1-1.6,8.1c0,0,12.1.1,12.5,0s-1.2-8-1.2-8l1.9-.5v.1Z" style="fill: #fff; stroke-width: 0px;"/>
    <g>
      <circle cx="93.35" cy="82.75" r="5" style="fill: #fff; stroke-width: 0px;"/>
      <circle cx="93.35" cy="82.75" r="3.3" style="fill: #fff; stroke-width: 0px;"/>
    </g>
    <path d="M84.55,52.25s34.8-.3,34.8,0v.3s-2.4,10.4-10.3,12.9-23,.5-24.5-13.2Z" style="fill: #fff; stroke-width: 0px;"/>
  </g>
  <path d="M65.65,19.25c.6,1.7-6.5,13.4-10.9,17.3s-14.2,9.6-13.2,25.3,0,19-8.4,20.7c-8.4,1.7-27.4,1.4-29.2,1.7s-7.9,2.5,0,2.9c7.9.4,30.1.4,35.7,0s8.8-5,10-8.4,1.3-9.2,6.9-10c0,0,1.2,5.4-.8,10.4s-3.3,8.4,1.9,8.3,28.6,0,28.6,0c0,0-2.1-4.9-12.7-3.7s-11.7,1.7-12.1-1.3.8-11.9,3.3-13.6,1.7-11.9,1.9-12.9,1.7-5.6,2.3-6.3,2.7-4.2,2.9-5.6c0,0,6.7,0,5.9,9.4,0,0,.6,1.7,1.5,0s2.5-9-5.4-15.1c0,0,0-3.4,1.5-4s1.9-3.2,2.7-4,5.3-2.7,5.3-2.7c0,0,.8-.4,2.8-.3s3.2.3,3.5-.3-.5-2.1-2.5-2.4-1.6-.3-4.3.2-6.2,2.6-6.2,2.6c0,0-1.5.4-1.6-1s-.4-3.7-.4-4.6-1.4-3.4-1.1-4.1,1.4-1.2,3.7-1.2,2.7-.6,3.3-1,1.2-2.2.4-2.9-4-2-4-2.6,0-1.3-.6-2-2.2-1.2-2.1-1.7,1-5.7.4-6-.3-.6-.9,0c-.6.6-2.6,3-3.2,4.6s-1.5,0-1.5,0c0,0-2.1-2.6-3.8-3.1s-2.3-1.2-1.8.9c.5,2.1,3.7,5,3.6,6.1s-.3,1.8-.9,3.5,0,2.1,0,3.9-.5,3-.5,3h0Z" style="fill: #fff; stroke-width: 0px;"/>
  <path id="Roo" d="M132.05,10.95h-4s-1.5-.4,0-.9,1.8-.2,2.3-.6,1.4-2.6,2.4-3.2,3.5-1.8,5.1,1,1.4,5.1.9,7.3-5,15.2-5,15.2c0,0-1.8,4.7.1,6.8s5.5.9,6.8.3,6.8-2.9,12.7-1,20.9,11.3,21,24.2c0,0,.4,2.9-2.9,2.5-3.3-.3-5.7-1-6.1-1.2s-4.3-1.2-5.5,3-1.6,19.5-1.6,19.5c0,0,0,3.1-3.1,2.9s-11.5,0-11.5,0c0,0,.5-1.8,3.3-2.2s5.7-.8,5.9-.8,2.3-.8,2.9-3.1,0-14.2-.1-14.3-.9-7-6.1-7.7c0,0,.9,1.9-.1,3-1,1.1-2.6,3.4-3.1,4.2s-4.2,8.4-4.7,9.5-3.6,6.6-3.8,6.8-1,1.6-.7,2.7-.2,1.6-.8,1.6h-13.5s1.7-1.9,4.9-2.2,3.1,0,4.2-.5,3.1-2.2,4.3-3.9,7.3-14.2,7.3-14.2c0,0,1.1-4.4-.2-6.5s-1.4-1.6-2.8-1.5-1.9.7-4.9-.7-7.9-6.1-9.2-8.2-5.7-10.7-2.1-17.9c3.6-7.1,8.2-14.9,9-16.1s1.5-3.4-1.4-3.7l.1-.1Z" style="fill: #fff; stroke-width: 0px;"/>
</svg>