<?xml version="1.0" encoding="UTF-8"?>
<svg id="Layer_1" xmlns="http://www.w3.org/2000/svg" version="1.1" viewBox="0 0 1000 1000">
  <!-- Generator: Adobe Illustrator 29.1.0, SVG Export Plug-In . SVG Version: 2.1.0 Build 142)  -->
  <defs>
    <style>
      .st0 {
        fill: #8fe3f9;
      }

      .st1 {
        fill: #fce4a9;
      }

      .st2 {
        fill: #fff;
      }

      .st3, .st4 {
        stroke: #231f20;
      }

      .st3, .st4, .st5, .st6 {
        fill: none;
        stroke-linecap: round;
        stroke-linejoin: round;
      }

      .st3, .st5 {
        stroke-width: 16px;
      }

      .st7 {
        fill: #ccc7e0;
      }

      .st8 {
        fill: #f7e8ad;
      }

      .st4, .st6 {
        stroke-width: 8px;
      }

      .st9 {
        fill: #231f20;
      }

      .st5 {
        stroke: #413d51;
      }

      .st6 {
        opacity: .3;
        stroke: #705fd3;
      }

      .st6, .st10 {
        isolation: isolate;
      }

      .st10 {
        opacity: .9;
      }

      .st10, .st11 {
        fill: #f9cd5f;
      }

      .st12 {
        fill: #d6d5e2;
      }

      .st13 {
        fill: #a197c6;
      }

      .st14 {
        fill: #f5f5f5;
      }

      .st15 {
        fill: #b4b2cc;
      }
    </style>
  </defs>
  <rect class="st14" x="-20.3" y="-19.9" width="1000" height="1000"/>
  <g>
    <ellipse class="st0" cx="502.4" cy="489.5" rx="228" ry="205.8"/>
    <ellipse class="st7" cx="502.4" cy="493.2" rx="228" ry="205.8"/>
    <path class="st12" d="M508.4,691.3c52.1,0,100.1-15.3,138.5-41l-10.5-24.7c-22-51.9-74.2-85.8-132.1-85.8h0c-57.9,0-110.1,33.9-132.1,85.8l-8.6,20.4c39.3,28.3,89.8,45.3,144.8,45.3Z"/>
    <path class="st13" d="M502.3,472.3l-43.6,64,32.9,43.8c5.4,7.2,16.3,7.2,21.7,0l32.6-43.8-43.6-64Z"/>
    <path class="st13" d="M502.4,671.3c-121.5,0-220.7-85.7-227.6-193.8-.3,4-.4,8-.4,12,0,113.6,102.1,205.8,228,205.8s228-92.1,228-205.8,0-8-.4-12c-6.9,108.1-106.2,193.8-227.6,193.8Z"/>
    <path class="st15" d="M639.2,630.1c-38.1,25.8-85.5,41.2-136.8,41.2s-96.2-14.5-133.7-39.1l-5,12.3c39.4,29.2,89.8,46.8,144.8,46.8s95.7-14.4,133.2-38.8c1.8-1.2,3.5-2.5,5.3-3.8l-7.8-18.6Z"/>
    <path class="st13" d="M268.8,490.2c6.4,13.1,15,25.3,25.8,36.2,52.3,52.3,137.2,52.3,189.5,0s50.9-110.3,21.5-161.5"/>
    <path class="st13" d="M729.6,505.8c-24,36.1-65,59.8-111.6,59.8-74,0-134-60-134-134s11.9-63.2,31.7-86.6"/>
    <ellipse class="st3" cx="502.4" cy="489.5" rx="228" ry="205.8"/>
    <polygon class="st9" points="502.3 444.3 458.7 508.3 502.5 566.6 546.1 508.3 502.3 444.3"/>
    <polygon class="st3" points="502.3 444.3 458.7 508.3 502.5 566.6 546.1 508.3 502.3 444.3"/>
    <path class="st9" d="M601.3,305.9c-30-14-64.1-21.9-100-21.9s-70,7.9-100,21.9v140.1h200v-140.1Z"/>
    <path class="st9" d="M614.1,319.9l108.7-3.3c-15.7,39.3-17.8,98.4-4.1,163-17.4,36.8-54.4,62.9-97.9,64.2h0c-61.8,1.9-113.5-46.7-115.3-108.6h0c-1.9-61.8,46.7-113.4,108.6-115.3Z"/>
    <path class="st3" d="M614.1,319.9l108.7-3.3c-15.7,39.3-17.8,98.4-4.1,163-17.4,36.8-54.4,62.9-97.9,64.2h0c-61.8,1.9-113.5-46.7-115.3-108.6h0c-1.9-61.8,46.7-113.4,108.6-115.3Z"/>
    <circle class="st8" cx="618.1" cy="431.7" r="112"/>
    <circle class="st1" cx="618.1" cy="431.7" r="112"/>
    <path class="st11" d="M697.2,352.5c-21.5-21.5-49.7-32.4-77.9-32.8,21.2,4.1,41.5,14.3,57.9,30.8,43.7,43.7,43.7,114.6,0,158.4-22.2,22.2-51.4,33.1-80.4,32.8,35.3,6.8,73.1-3.5,100.4-30.8,43.7-43.8,43.7-114.7,0-158.4Z"/>
    <ellipse class="st14" cx="591.4" cy="431.7" rx="84" ry="84.6" transform="translate(-132.1 544.6) rotate(-45)"/>
    <path class="st11" d="M712.1,378.6c-3.1-4-9.1-15-12.8-18.7-44-43.4-114.9-43-158.3,1.1-8.6,8.7-15.5,18.5-20.6,29,61.7-21.7,129.3-16.5,191.7-11.4Z"/>
    <circle class="st5" cx="618.1" cy="431.7" r="112"/>
    <circle class="st3" cx="618.1" cy="431.7" r="112"/>
    <path class="st9" d="M707.3,364.1c-3.1-4-6.4-7.9-10.1-11.6-43.7-43.7-114.6-43.7-158.4,0-8.7,8.7-15.6,18.4-20.8,28.8,62-21.2,126.9-22.8,189.3-17.2Z"/>
    <circle class="st9" cx="563.6" cy="440.1" r="42"/>
    <circle class="st2" cx="539.7" cy="440.4" r="14"/>
    <path class="st9" d="M396.2,321.4l-108.8-3.3c15.7,39.3,17.8,98.4,4.1,163,17.4,36.8,54.4,62.9,97.9,64.2h0c61.8,1.9,113.5-46.7,115.3-108.6h0c1.9-61.8-46.7-113.4-108.5-115.3Z"/>
    <path class="st3" d="M389.4,319.9l-108.8-3.3c15.7,39.3,17.8,98.4,4.1,163,17.4,36.8,54.4,62.9,97.9,64.2h0c61.8,1.9,113.5-46.7,115.3-108.6h0c1.9-61.8-46.7-113.4-108.5-115.3Z"/>
    <circle class="st8" cx="385.4" cy="431.7" r="112"/>
    <circle class="st1" cx="385.4" cy="431.7" r="112"/>
    <path class="st11" d="M306.2,352.5c21.5-21.5,49.7-32.4,77.9-32.8-21.2,4.1-41.5,14.3-57.9,30.8-43.7,43.7-43.7,114.6,0,158.4,22.2,22.2,51.4,33.1,80.4,32.8-35.3,6.8-73.1-3.5-100.4-30.8-43.7-43.8-43.7-114.7,0-158.4Z"/>
    <ellipse class="st14" cx="412.2" cy="431.7" rx="84.6" ry="84" transform="translate(-184.6 417.9) rotate(-45)"/>
    <path class="st10" d="M291.5,378.6c3.1-4,9.1-15,12.8-18.7,44-43.4,114.9-43,158.3,1.1,8.6,8.7,15.5,18.5,20.6,29-61.8-21.7-129.4-16.5-191.7-11.4Z"/>
    <circle class="st5" cx="385.4" cy="431.7" r="112"/>
    <circle class="st3" cx="385.4" cy="431.7" r="112"/>
    <path class="st9" d="M296.2,367.6c3.1-4,6.4-7.9,10.1-11.6,43.7-43.7,114.6-43.7,158.4,0,8.7,8.7,15.6,18.4,20.8,28.8-62-21.2-127-22.8-189.3-17.2Z"/>
    <circle class="st9" cx="440" cy="440.1" r="42"/>
    <circle class="st2" cx="463.8" cy="440.4" r="14"/>
    <path class="st9" d="M448.5,720.3h0c-8.8,0-16-7.2-16-16v-18c0-8.8,7.2-16,16-16h0c8.8,0,16,7.2,16,16v18c0,8.8-7.1,16-16,16Z"/>
    <path class="st9" d="M416.5,720.3h0c-8.8,0-16-7.2-16-16v-18c0-8.8,7.2-16,16-16h0c8.8,0,16,7.2,16,16v18c0,8.8-7.1,16-16,16Z"/>
    <path class="st9" d="M480.3,720.3h0c-8.8,0-16-7.2-16-16v-18c0-8.8,7.2-16,16-16h0c8.8,0,16,7.2,16,16v18c0,8.8-7.2,16-16,16Z"/>
    <path class="st9" d="M522.6,720.3h0c-8.8,0-16-7.2-16-16v-18c0-8.8,7.2-16,16-16h0c8.8,0,16,7.2,16,16v18c0,8.8-7.2,16-16,16Z"/>
    <path class="st9" d="M554.3,720.3h0c-8.8,0-16-7.2-16-16v-18c0-8.8,7.2-16,16-16h0c8.8,0,16,7.2,16,16v18c0,8.8-7.2,16-16,16Z"/>
    <path class="st9" d="M586.3,720.3h0c-8.8,0-16-7.2-16-16v-18c0-8.8,7.2-16,16-16h0c8.8,0,16,7.2,16,16v18c0,8.8-7.2,16-16,16Z"/>
    <path class="st4" d="M492.5,589.6c0,8.4-6.8,15.2-15.2,15.2s-15.2-6.8-15.2-15.2"/>
    <path class="st4" d="M539.1,589.6c0,8.4-6.8,15.2-15.2,15.2s-15.2-6.8-15.2-15.2"/>
    <path class="st6" d="M323.6,550.8c-2.2,4.7-7.7,6.8-12.5,4.6s-6.8-7.7-4.6-12.5"/>
    <path class="st6" d="M353.4,566.3c-2.2,4.7-7.7,6.8-12.5,4.6-4.7-2.2-6.8-7.7-4.6-12.5"/>
    <path class="st6" d="M336.1,578.2c-2.2,4.7-7.7,6.8-12.5,4.6-4.7-2.2-6.8-7.7-4.6-12.5"/>
    <path class="st6" d="M362.3,598.1c-2.2,4.7-7.7,6.8-12.5,4.6-4.7-2.2-6.8-7.7-4.6-12.5"/>
    <path class="st6" d="M382.3,580.1c-2.2,4.7-7.7,6.8-12.5,4.6-4.7-2.2-6.8-7.7-4.6-12.5"/>
    <path class="st6" d="M684.3,552.8c2.2,4.7,7.7,6.8,12.5,4.6s6.8-7.7,4.6-12.5"/>
    <path class="st6" d="M654.6,568.3c2.2,4.7,7.7,6.8,12.5,4.6,4.7-2.2,6.8-7.7,4.6-12.5"/>
    <path class="st6" d="M671.8,580.2c2.2,4.7,7.7,6.8,12.5,4.6,4.7-2.2,6.8-7.7,4.6-12.5"/>
    <path class="st6" d="M645.7,600.1c2.2,4.7,7.7,6.8,12.5,4.6,4.7-2.2,6.8-7.7,4.6-12.5"/>
    <path class="st6" d="M625.7,582.1c2.2,4.7,7.7,6.8,12.5,4.6,4.7-2.2,6.8-7.7,4.6-12.5"/>
    <path class="st4" d="M469.3,626.1c0,8.4-6.8,15.2-15.2,15.2s-15.2-6.8-15.2-15.2"/>
    <path class="st4" d="M515.8,626.1c0,8.4-6.8,15.2-15.2,15.2s-15.2-6.8-15.2-15.2"/>
    <path class="st4" d="M562.3,626.1c0,8.4-6.8,15.2-15.2,15.2s-15.2-6.8-15.2-15.2"/>
  </g>
</svg>