<?xml version="1.0" encoding="UTF-8" standalone="no"?>
<!DOCTYPE svg PUBLIC "-//W3C//DTD SVG 1.1//EN" "http://www.w3.org/Graphics/SVG/1.1/DTD/svg11.dtd">
<svg width="100%" height="100%" viewBox="0 0 570 520" version="1.1" xmlns="http://www.w3.org/2000/svg" xmlns:xlink="http://www.w3.org/1999/xlink" xml:space="preserve" xmlns:serif="http://www.serif.com/" style="fill-rule:evenodd;clip-rule:evenodd;stroke-linecap:round;stroke-linejoin:round;">
    <g transform="matrix(1,0,0,1,143.312,25.087)">
        <g id="图层_1">
            <path d="M8.26,399.72C8.26,447.882 100.427,486.921 213.7,486.921C326.98,486.921 418.81,447.882 418.81,399.72L418.81,227.31L8.26,227.31L8.26,399.72Z" style="fill:url(#_Radial1);fill-rule:nonzero;"/>
            <path d="M4.741,217.33C4.741,222.928 -6.519,252.282 8.388,252.282C17.422,252.282 13.775,240.428 21.638,249.286C49.136,280.24 57.073,334.846 85.909,361.786C99.65,374.626 118.24,370.121 134.106,377.763C157.949,389.238 150.195,426.354 181.5,426.354C208.83,426.354 199.703,375.266 226.534,375.266C254.824,375.266 256.946,409.715 275.734,409.715C300.081,409.715 288.711,352.882 313.003,329.834C348.777,295.885 376.389,319.096 371.139,339.32C365.179,362.285 373.042,381.756 384.061,381.756C401.453,381.756 397.388,347.585 396.484,338.321C394,312.859 405.907,295.397 415.37,287.896C429.876,276.398 426.299,231.536 426.299,217.751C426.299,171.016 355.53,124.804 212.419,124.804C63.999,124.794 4.739,170.584 4.739,217.324L4.741,217.33Z" style="fill:url(#_Radial2);fill-rule:nonzero;"/>
            <path d="M4.075,209.34C4.075,214.937 -7.182,244.291 7.725,244.291C16.755,244.291 13.112,232.437 20.979,241.296C48.477,272.249 56.406,326.856 85.246,353.796C98.983,366.637 117.577,362.132 133.439,369.773C157.286,381.248 149.844,419.698 181.145,419.698C208.475,419.698 199.036,367.277 225.867,367.277C254.157,367.277 256.279,401.725 275.071,401.725C299.418,401.725 288.044,344.892 312.34,321.844C348.111,287.895 375.722,311.107 370.472,331.33C364.516,354.296 372.379,373.767 383.394,373.767C400.786,373.767 396.726,339.595 395.817,330.331C393.333,304.869 405.236,287.407 414.707,279.907C429.209,268.408 425.632,223.546 425.632,209.761C425.632,163.026 354.867,116.814 211.752,116.814C63.352,116.804 4.092,162.594 4.092,209.334L4.075,209.34Z" style="fill:url(#_Radial3);fill-rule:nonzero;"/>
            <path d="M331.9,158.08C331.9,180.874 277.954,199.354 211.41,199.354C144.865,199.354 90.92,180.874 90.92,158.08C90.92,135.29 144.867,116.81 211.41,116.81C277.95,116.81 331.9,135.29 331.9,158.08Z" style="fill:url(#_Radial4);fill-rule:nonzero;"/>
            <path d="M295.66,97.503C295.66,97.503 302.981,69.88 284.01,64.225C265.038,58.562 190.818,56.569 185.158,64.225C179.498,71.878 295.658,97.503 295.658,97.503L295.66,97.503Z" style="fill:url(#_Radial5);fill-rule:nonzero;"/>
            <path d="M185.49,46.58C185.49,46.58 105.251,66.09 95.293,111.818C84.641,160.745 119.588,176.385 225.103,193.695C262.683,199.855 185.493,46.575 185.493,46.575L185.49,46.58Z" style="fill:url(#_Radial6);fill-rule:nonzero;"/>
            <path d="M184.83,55.239C184.83,55.239 123.59,64.888 121.924,104.166C120.258,143.435 159.2,174.389 180.169,180.38C201.137,186.371 208.124,170.395 205.463,145.432C202.813,120.472 184.843,55.241 184.843,55.241L184.83,55.239Z" style="fill:url(#_Radial7);fill-rule:nonzero;"/>
            <path d="M179.84,53.242C179.84,53.242 127.918,64.888 127.918,99.501C127.918,134.121 161.532,141.773 175.179,144.434C188.826,147.102 231.762,169.069 231.762,179.717C231.762,190.365 232.094,193.033 232.094,193.033C232.094,193.033 261.386,167.4 268.707,166.737C276.037,166.077 179.847,53.247 179.847,53.247L179.84,53.242Z" style="fill:url(#_Radial8);fill-rule:nonzero;"/>
            <path d="M246.53,26.727C259.647,41.958 263.454,59.771 256.148,72.732C246.12,90.514 211.98,104.009 183.811,89.664C162.608,78.879 160.923,48.804 171.263,31.201C183.378,10.58 207.065,-5.537 224.577,1.804C236.897,6.94 237.927,16.726 246.537,26.727L246.53,26.727Z" style="fill:url(#_Radial9);fill-rule:nonzero;"/>
            <path d="M238.64,16.391C238.64,16.391 229.228,5.138 223.537,7.459C219.02,9.292 228.179,19.741 230.522,23.903C232.867,28.072 249.061,48.971 254.143,46.849C259.223,44.723 244.413,26.017 238.643,16.391L238.64,16.391Z" style="fill:url(#_Radial10);fill-rule:nonzero;"/>
            <path d="M248.36,36.715C246.753,41.903 241.534,34.976 238.168,32.28C232.415,27.642 229.95,20.641 231.358,18.878C233.031,16.772 236.046,17.298 240.653,22.619C246.073,28.864 249.493,33.081 248.353,36.715L248.36,36.715Z" style="fill:url(#_Radial11);fill-rule:nonzero;"/>
            <path d="M183.81,89.664C211.979,104.01 246.119,90.515 256.147,72.732C257.765,69.857 258.752,66.721 259.294,63.453C257.874,59.814 256.322,56.327 254.875,54.151C250.065,47.005 246.11,44.997 246.11,44.997C246.11,44.997 251.63,59.947 236.793,64.055C223.009,67.873 183.973,82.621 165.236,58.75C166.116,71.39 171.866,83.591 183.806,89.664L183.81,89.664Z" style="fill:url(#_Radial12);fill-rule:nonzero;"/>
            <path d="M182.23,27.105C189.446,19.866 211.608,7.345 214.237,3.227C215.341,1.495 218.695,1.012 222.245,1.019C205.013,-4.067 182.843,11.464 171.259,31.2C167.476,37.656 165.319,45.788 165.132,54.022C166.912,50.558 175.762,33.591 182.232,27.105L182.23,27.105Z" style="fill:url(#_Radial13);fill-rule:nonzero;"/>
            <path d="M201.72,24.141C201.72,24.141 206.545,17.659 215.146,22.78C223.747,27.898 229.437,34.762 230.088,38.822C230.751,42.871 221.932,39.622 216.413,35.331C210.883,31.037 200.093,28.271 201.713,24.141L201.72,24.141Z" style="fill:url(#_Radial14);fill-rule:nonzero;"/>
            <path d="M209.38,23.322C209.38,23.322 216.708,25.073 218.678,27.562C220.624,30.031 224.467,33.729 223.366,34.895C222.266,36.081 215.956,30.39 215.366,30.094C214.766,29.785 200.696,26.59 209.376,23.322L209.38,23.322Z" style="fill:url(#_Radial15);fill-rule:nonzero;"/>
            <path d="M175.51,63.554C175.51,63.554 159.202,79.866 159.202,104.161C159.202,128.456 180.506,138.442 195.815,138.442C211.125,138.442 232.756,142.771 243.408,152.756C254.06,162.741 260.044,169.731 276.023,172.059C292.003,174.387 312.309,175.721 313.639,167.07C314.969,158.42 175.509,63.56 175.509,63.56L175.51,63.554Z" style="fill:url(#_Radial16);fill-rule:nonzero;"/>
            <path d="M271.7,132.46C292.802,145.46 319.804,142.804 329.282,145.109C329.282,145.109 344.591,123.47 336.271,110.489C327.952,97.509 308.976,89.525 295.333,88.195C281.689,86.861 251.73,76.544 237.42,71.22C223.109,65.892 204.805,73.545 202.141,80.534C199.477,87.524 196.817,96.51 196.817,96.51C196.817,96.51 238.747,112.149 271.697,132.459L271.7,132.46Z" style="fill:url(#_Radial17);fill-rule:nonzero;"/>
            <path d="M177.18,67.221C177.18,67.221 169.527,87.191 191.826,95.179C214.124,103.167 249.076,111.483 263.718,128.457C278.361,145.432 307.322,178.382 315.641,169.731C323.96,161.08 344.262,142.443 329.285,136.78C314.307,131.124 277.362,135.118 265.381,122.801C253.399,110.483 242.743,106.489 224.107,100.834C205.457,95.183 190.487,92.187 177.177,67.225L177.18,67.221Z" style="fill:url(#_Radial18);fill-rule:nonzero;"/>
            <path d="M216.32,448.31C311.806,448.31 392.58,426.097 419.33,395.534C419.318,400.015 419.31,404.111 419.31,407.708C419.31,455.87 327.213,494.909 213.62,494.909C100.02,494.909 7.92,455.87 7.92,407.708C7.92,400.937 7.912,394.411 7.904,387.948C27.095,422.368 113.104,448.318 216.324,448.318L216.32,448.31Z" style="fill:url(#_Radial19);fill-rule:nonzero;"/>
            <path d="M373.38,160.06C392.594,170.299 403.792,182.492 403.792,195.597C403.792,231.757 318.853,261.069 214.072,261.069C113.302,261.069 30.912,233.946 24.772,199.7C24.526,201.128 24.362,202.563 24.362,204.014C24.362,242.617 112.285,273.91 220.732,273.91C329.179,273.91 417.102,242.617 417.102,204.014C417.102,187.364 400.712,172.074 373.382,160.064L373.38,160.06Z" style="fill:url(#_Radial20);fill-rule:nonzero;"/>
            <path d="M313.26,304.86C313.26,304.86 383.156,256.932 387.15,331.82C377.16,315.85 379.16,288.89 313.26,304.86Z" style="fill:url(#_Radial21);fill-rule:nonzero;"/>
            <path d="M392.14,338.81C392.14,338.81 391.64,360.278 385.15,369.764C400.13,369.774 392.14,338.814 392.14,338.814L392.14,338.81Z" style="fill:url(#_Radial22);fill-rule:nonzero;"/>
            <path d="M338.1,152.22C338.19,153.531 338.237,154.845 338.237,156.167C338.237,197.09 289.026,245.877 234.377,246.953C272.32,253.942 393.317,230.977 393.317,192.613C393.317,174.983 370.867,159.723 338.097,152.213L338.1,152.22Z" style="fill:url(#_Radial23);fill-rule:nonzero;"/>
            <path d="M304.77,324.09C304.77,324.09 287.296,346.307 287.296,371.769C287.296,397.231 275.814,401.225 268.324,390.741C279.974,390.405 280.973,380.592 280.973,370.107C280.973,359.622 281.803,335.227 304.763,324.087L304.77,324.09Z" style="fill:url(#_Radial24);fill-rule:nonzero;"/>
            <path d="M226.72,362.12C226.72,362.12 209.41,362.783 202.756,380.421C196.102,398.066 185.114,428.685 166.81,407.053C181.456,411.374 186.453,402.052 194.105,386.747C201.765,371.437 207.425,360.787 226.725,362.127L226.72,362.12Z" style="fill:url(#_Radial25);fill-rule:nonzero;"/>
            <path d="M368.18,262.93C368.18,262.93 407.122,244.956 419.104,225.985C419.104,246.954 423.098,259.934 413.113,271.917C403.129,283.898 395.14,294.883 393.143,303.869C387.153,281.909 385.153,265.929 368.183,262.939L368.18,262.93Z" style="fill:url(#_Radial26);fill-rule:nonzero;"/>
        </g>
        <g id="Layer-1" serif:id="Layer 1" transform="matrix(4.95858,0,0,4.95858,-139.422,-25.2758)">
            <g id="g2179" transform="matrix(1,0,0,1,-2.27189,-3.39579)">
                <g id="path3141" transform="matrix(0.99849,0,0,0.99849,3.9962,4.8147)">
                    <path d="M55.091,27.727C55.091,42.838 42.657,55.273 27.546,55.273C12.434,55.273 0,42.838 0,27.727C0,12.616 12.434,0.182 27.545,0.182C42.657,0.182 55.091,12.616 55.091,27.727Z" style="fill:url(#_Radial27);fill-rule:nonzero;"/>
                </g>
                <g id="path2168" transform="matrix(0.99849,0,0,0.99849,3.9962,4.8147)">
                    <path d="M55.091,27.727C55.091,42.838 42.657,55.273 27.546,55.273C12.434,55.273 0,42.838 0,27.727C0,12.616 12.434,0.182 27.545,0.182C42.657,0.182 55.091,12.616 55.091,27.727Z" style="fill:url(#_Radial28);fill-rule:nonzero;stroke:rgb(0,190,49);stroke-width:2.5px;"/>
                </g>
            </g>
            <g transform="matrix(4.68123,0,0,4.68123,-85.8042,-58.4833)">
                <text x="21.122px" y="22.746px" style="font-family:'Arial-BoldMT', 'Arial', sans-serif;font-weight:700;font-size:12px;fill:white;">+</text>
            </g>
        </g>
    </g>
    <defs>
        <radialGradient id="_Radial1" cx="0" cy="0" r="1" gradientUnits="userSpaceOnUse" gradientTransform="matrix(680.844,0,0,673.97,385.872,166.08)"><stop offset="0" style="stop-color:white;stop-opacity:1"/><stop offset="0.02" style="stop-color:rgb(253,247,226);stop-opacity:1"/><stop offset="0.09" style="stop-color:rgb(248,225,140);stop-opacity:1"/><stop offset="0.13" style="stop-color:rgb(246,216,106);stop-opacity:1"/><stop offset="0.37" style="stop-color:rgb(243,203,90);stop-opacity:1"/><stop offset="0.65" style="stop-color:rgb(196,115,19);stop-opacity:1"/><stop offset="0.99" style="stop-color:rgb(172,74,21);stop-opacity:1"/><stop offset="1" style="stop-color:rgb(172,74,21);stop-opacity:1"/></radialGradient>
        <radialGradient id="_Radial2" cx="0" cy="0" r="1" gradientUnits="userSpaceOnUse" gradientTransform="matrix(-330.499,0,0,332.06,400.561,-112.46)"><stop offset="0" style="stop-color:white;stop-opacity:1"/><stop offset="0.15" style="stop-color:rgb(207,173,154);stop-opacity:1"/><stop offset="0.28" style="stop-color:rgb(165,102,67);stop-opacity:1"/><stop offset="0.35" style="stop-color:rgb(149,74,33);stop-opacity:1"/><stop offset="0.65" style="stop-color:rgb(84,28,11);stop-opacity:1"/><stop offset="0.99" style="stop-color:rgb(54,17,17);stop-opacity:1"/><stop offset="1" style="stop-color:rgb(54,17,17);stop-opacity:1"/></radialGradient>
        <radialGradient id="_Radial3" cx="0" cy="0" r="1" gradientUnits="userSpaceOnUse" gradientTransform="matrix(-476.271,0,0,478.52,374.087,-25.642)"><stop offset="0" style="stop-color:white;stop-opacity:1"/><stop offset="0.15" style="stop-color:rgb(207,173,154);stop-opacity:1"/><stop offset="0.28" style="stop-color:rgb(165,102,67);stop-opacity:1"/><stop offset="0.35" style="stop-color:rgb(149,74,33);stop-opacity:1"/><stop offset="0.65" style="stop-color:rgb(84,28,11);stop-opacity:1"/><stop offset="0.99" style="stop-color:rgb(54,17,17);stop-opacity:1"/><stop offset="1" style="stop-color:rgb(54,17,17);stop-opacity:1"/></radialGradient>
        <radialGradient id="_Radial4" cx="0" cy="0" r="1" gradientUnits="userSpaceOnUse" gradientTransform="matrix(273.26,0,0,273.26,389.15,-49.608)"><stop offset="0" style="stop-color:white;stop-opacity:1"/><stop offset="0.15" style="stop-color:rgb(207,173,154);stop-opacity:1"/><stop offset="0.28" style="stop-color:rgb(165,102,67);stop-opacity:1"/><stop offset="0.35" style="stop-color:rgb(149,74,33);stop-opacity:1"/><stop offset="0.65" style="stop-color:rgb(84,28,11);stop-opacity:1"/><stop offset="0.99" style="stop-color:rgb(54,17,17);stop-opacity:1"/><stop offset="1" style="stop-color:rgb(54,17,17);stop-opacity:1"/></radialGradient>
        <radialGradient id="_Radial5" cx="0" cy="0" r="1" gradientUnits="userSpaceOnUse" gradientTransform="matrix(-801.74,0,0,801.74,119,63.557)"><stop offset="0" style="stop-color:white;stop-opacity:1"/><stop offset="1" style="stop-color:rgb(100,100,100);stop-opacity:1"/></radialGradient>
        <radialGradient id="_Radial6" cx="0" cy="0" r="1" gradientUnits="userSpaceOnUse" gradientTransform="matrix(-571.77,0,0,571.77,165.5,-1.6787)"><stop offset="0" style="stop-color:white;stop-opacity:1"/><stop offset="1" style="stop-color:rgb(100,100,100);stop-opacity:1"/></radialGradient>
        <radialGradient id="_Radial7" cx="0" cy="0" r="1" gradientUnits="userSpaceOnUse" gradientTransform="matrix(-776.58,0,0,776.58,324,-84.213)"><stop offset="0" style="stop-color:white;stop-opacity:1"/><stop offset="1" style="stop-color:rgb(100,100,100);stop-opacity:1"/></radialGradient>
        <radialGradient id="_Radial8" cx="0" cy="0" r="1" gradientUnits="userSpaceOnUse" gradientTransform="matrix(-916.37,0,0,916.37,115,32.94)"><stop offset="0" style="stop-color:white;stop-opacity:1"/><stop offset="1" style="stop-color:rgb(100,100,100);stop-opacity:1"/></radialGradient>
        <radialGradient id="_Radial9" cx="0" cy="0" r="1" gradientUnits="userSpaceOnUse" gradientTransform="matrix(112.065,57.04,-57.3779,111.414,300.006,47.8784)"><stop offset="0" style="stop-color:white;stop-opacity:1"/><stop offset="0.05" style="stop-color:rgb(252,205,204);stop-opacity:1"/><stop offset="0.17" style="stop-color:rgb(246,89,84);stop-opacity:1"/><stop offset="0.22" style="stop-color:rgb(243,43,36);stop-opacity:1"/><stop offset="0.52" style="stop-color:rgb(219,35,19);stop-opacity:1"/><stop offset="0.77" style="stop-color:rgb(200,20,13);stop-opacity:1"/><stop offset="0.98" style="stop-color:rgb(170,14,11);stop-opacity:1"/><stop offset="1" style="stop-color:rgb(170,14,11);stop-opacity:1"/></radialGradient>
        <radialGradient id="_Radial10" cx="0" cy="0" r="1" gradientUnits="userSpaceOnUse" gradientTransform="matrix(199.688,101.639,-102.242,198.528,261.591,15.9005)"><stop offset="0" style="stop-color:white;stop-opacity:0.29"/><stop offset="0.05" style="stop-color:rgb(252,205,204);stop-opacity:0.29"/><stop offset="0.17" style="stop-color:rgb(246,89,84);stop-opacity:0.29"/><stop offset="0.22" style="stop-color:rgb(243,43,36);stop-opacity:0.29"/><stop offset="0.52" style="stop-color:rgb(219,35,19);stop-opacity:0.29"/><stop offset="0.77" style="stop-color:rgb(200,20,13);stop-opacity:0.29"/><stop offset="0.98" style="stop-color:rgb(170,14,11);stop-opacity:0.29"/><stop offset="1" style="stop-color:rgb(170,14,11);stop-opacity:0.29"/></radialGradient>
        <radialGradient id="_Radial11" cx="0" cy="0" r="1" gradientUnits="userSpaceOnUse" gradientTransform="matrix(45.458,23.1377,-23.2748,45.1939,273.83,23.1183)"><stop offset="0" style="stop-color:white;stop-opacity:1"/><stop offset="0.05" style="stop-color:rgb(252,205,204);stop-opacity:1"/><stop offset="0.17" style="stop-color:rgb(246,89,84);stop-opacity:1"/><stop offset="0.22" style="stop-color:rgb(243,43,36);stop-opacity:1"/><stop offset="0.52" style="stop-color:rgb(219,35,19);stop-opacity:1"/><stop offset="0.77" style="stop-color:rgb(200,20,13);stop-opacity:1"/><stop offset="0.98" style="stop-color:rgb(170,14,11);stop-opacity:1"/><stop offset="1" style="stop-color:rgb(170,14,11);stop-opacity:1"/></radialGradient>
        <radialGradient id="_Radial12" cx="0" cy="0" r="1" gradientUnits="userSpaceOnUse" gradientTransform="matrix(367.494,187.051,-188.159,365.359,289.025,75.0146)"><stop offset="0" style="stop-color:white;stop-opacity:0.21"/><stop offset="0.05" style="stop-color:rgb(252,205,204);stop-opacity:0.21"/><stop offset="0.17" style="stop-color:rgb(246,89,84);stop-opacity:0.21"/><stop offset="0.22" style="stop-color:rgb(243,43,36);stop-opacity:0.21"/><stop offset="0.52" style="stop-color:rgb(219,35,19);stop-opacity:0.21"/><stop offset="0.77" style="stop-color:rgb(200,20,13);stop-opacity:0.21"/><stop offset="0.98" style="stop-color:rgb(170,14,11);stop-opacity:0.21"/><stop offset="1" style="stop-color:rgb(170,14,11);stop-opacity:0.21"/></radialGradient>
        <radialGradient id="_Radial13" cx="0" cy="0" r="1" gradientUnits="userSpaceOnUse" gradientTransform="matrix(178.836,91.0261,-91.5654,177.797,213.143,-27.5989)"><stop offset="0" style="stop-color:white;stop-opacity:0.34"/><stop offset="0.05" style="stop-color:rgb(252,205,204);stop-opacity:0.34"/><stop offset="0.17" style="stop-color:rgb(246,89,84);stop-opacity:0.34"/><stop offset="0.22" style="stop-color:rgb(243,43,36);stop-opacity:0.34"/><stop offset="0.52" style="stop-color:rgb(219,35,19);stop-opacity:0.34"/><stop offset="0.77" style="stop-color:rgb(200,20,13);stop-opacity:0.34"/><stop offset="0.98" style="stop-color:rgb(170,14,11);stop-opacity:0.34"/><stop offset="1" style="stop-color:rgb(170,14,11);stop-opacity:0.34"/></radialGradient>
        <radialGradient id="_Radial14" cx="0" cy="0" r="1" gradientUnits="userSpaceOnUse" gradientTransform="matrix(148.674,75.6735,-76.1219,147.81,224.603,19.9017)"><stop offset="0" style="stop-color:white;stop-opacity:0.19"/><stop offset="0.05" style="stop-color:rgb(252,205,204);stop-opacity:0.19"/><stop offset="0.17" style="stop-color:rgb(246,89,84);stop-opacity:0.19"/><stop offset="0.22" style="stop-color:rgb(243,43,36);stop-opacity:0.19"/><stop offset="0.52" style="stop-color:rgb(219,35,19);stop-opacity:0.19"/><stop offset="0.77" style="stop-color:rgb(200,20,13);stop-opacity:0.19"/><stop offset="0.98" style="stop-color:rgb(170,14,11);stop-opacity:0.19"/><stop offset="1" style="stop-color:rgb(170,14,11);stop-opacity:0.19"/></radialGradient>
        <radialGradient id="_Radial15" cx="0" cy="0" r="1" gradientUnits="userSpaceOnUse" gradientTransform="matrix(275.869,140.415,-141.247,274.267,218.989,24.9871)"><stop offset="0" style="stop-color:white;stop-opacity:0.73"/><stop offset="0.05" style="stop-color:rgb(252,205,204);stop-opacity:0.73"/><stop offset="0.17" style="stop-color:rgb(246,89,84);stop-opacity:0.73"/><stop offset="0.22" style="stop-color:rgb(243,43,36);stop-opacity:0.73"/><stop offset="0.52" style="stop-color:rgb(219,35,19);stop-opacity:0.73"/><stop offset="0.77" style="stop-color:rgb(200,20,13);stop-opacity:0.73"/><stop offset="0.98" style="stop-color:rgb(170,14,11);stop-opacity:0.73"/><stop offset="1" style="stop-color:rgb(170,14,11);stop-opacity:0.73"/></radialGradient>
        <radialGradient id="_Radial16" cx="0" cy="0" r="1" gradientUnits="userSpaceOnUse" gradientTransform="matrix(-706.15,0,0,706.15,172.2,-66.915)"><stop offset="0" style="stop-color:white;stop-opacity:1"/><stop offset="1" style="stop-color:rgb(100,100,100);stop-opacity:1"/></radialGradient>
        <radialGradient id="_Radial17" cx="0" cy="0" r="1" gradientUnits="userSpaceOnUse" gradientTransform="matrix(-522.49,0,0,522.49,198.8,-26.976)"><stop offset="0" style="stop-color:white;stop-opacity:1"/><stop offset="1" style="stop-color:rgb(100,100,100);stop-opacity:1"/></radialGradient>
        <radialGradient id="_Radial18" cx="0" cy="0" r="1" gradientUnits="userSpaceOnUse" gradientTransform="matrix(-1480.2,0,0,1480.2,153.6,-16.316)"><stop offset="0" style="stop-color:white;stop-opacity:1"/><stop offset="1" style="stop-color:rgb(100,100,100);stop-opacity:1"/></radialGradient>
        <radialGradient id="_Radial19" cx="0" cy="0" r="1" gradientUnits="userSpaceOnUse" gradientTransform="matrix(-557.955,0,0,550.74,483.967,178.05)"><stop offset="0" style="stop-color:white;stop-opacity:1"/><stop offset="0.02" style="stop-color:rgb(253,247,226);stop-opacity:1"/><stop offset="0.09" style="stop-color:rgb(248,225,140);stop-opacity:1"/><stop offset="0.13" style="stop-color:rgb(246,216,106);stop-opacity:1"/><stop offset="0.37" style="stop-color:rgb(243,203,90);stop-opacity:1"/><stop offset="0.65" style="stop-color:rgb(196,115,19);stop-opacity:1"/><stop offset="0.99" style="stop-color:rgb(172,74,21);stop-opacity:1"/><stop offset="1" style="stop-color:rgb(172,74,21);stop-opacity:1"/></radialGradient>
        <radialGradient id="_Radial20" cx="0" cy="0" r="1" gradientUnits="userSpaceOnUse" gradientTransform="matrix(515.79,0,0,577.571,411.115,200.018)"><stop offset="0" style="stop-color:white;stop-opacity:0.49"/><stop offset="0.15" style="stop-color:rgb(207,173,154);stop-opacity:0.49"/><stop offset="0.28" style="stop-color:rgb(165,102,67);stop-opacity:0.49"/><stop offset="0.35" style="stop-color:rgb(149,74,33);stop-opacity:0.49"/><stop offset="0.65" style="stop-color:rgb(84,28,11);stop-opacity:0.49"/><stop offset="0.99" style="stop-color:rgb(54,17,17);stop-opacity:0.49"/><stop offset="1" style="stop-color:rgb(54,17,17);stop-opacity:0.49"/></radialGradient>
        <radialGradient id="_Radial21" cx="0" cy="0" r="1" gradientUnits="userSpaceOnUse" gradientTransform="matrix(243.53,0,0,243.53,350.2,279.9)"><stop offset="0" style="stop-color:white;stop-opacity:0.49"/><stop offset="0.15" style="stop-color:rgb(207,173,154);stop-opacity:0.49"/><stop offset="0.28" style="stop-color:rgb(165,102,67);stop-opacity:0.49"/><stop offset="0.35" style="stop-color:rgb(149,74,33);stop-opacity:0.49"/><stop offset="0.65" style="stop-color:rgb(84,28,11);stop-opacity:0.49"/><stop offset="0.99" style="stop-color:rgb(54,17,17);stop-opacity:0.49"/><stop offset="1" style="stop-color:rgb(54,17,17);stop-opacity:0.49"/></radialGradient>
        <radialGradient id="_Radial22" cx="0" cy="0" r="1" gradientUnits="userSpaceOnUse" gradientTransform="matrix(147.05,0,0,147.05,389.71,331.56)"><stop offset="0" style="stop-color:white;stop-opacity:0.51"/><stop offset="0.15" style="stop-color:rgb(207,173,154);stop-opacity:0.51"/><stop offset="0.28" style="stop-color:rgb(165,102,67);stop-opacity:0.51"/><stop offset="0.35" style="stop-color:rgb(149,74,33);stop-opacity:0.51"/><stop offset="0.65" style="stop-color:rgb(84,28,11);stop-opacity:0.51"/><stop offset="0.99" style="stop-color:rgb(54,17,17);stop-opacity:0.51"/><stop offset="1" style="stop-color:rgb(54,17,17);stop-opacity:0.51"/></radialGradient>
        <radialGradient id="_Radial23" cx="0" cy="0" r="1" gradientUnits="userSpaceOnUse" gradientTransform="matrix(1221.5,0,0,1221.5,389,156.55)"><stop offset="0" style="stop-color:white;stop-opacity:0.16"/><stop offset="0.15" style="stop-color:rgb(207,173,154);stop-opacity:0.16"/><stop offset="0.28" style="stop-color:rgb(165,102,67);stop-opacity:0.16"/><stop offset="0.35" style="stop-color:rgb(149,74,33);stop-opacity:0.16"/><stop offset="0.65" style="stop-color:rgb(84,28,11);stop-opacity:0.16"/><stop offset="0.99" style="stop-color:rgb(54,17,17);stop-opacity:0.16"/><stop offset="1" style="stop-color:rgb(54,17,17);stop-opacity:0.16"/></radialGradient>
        <radialGradient id="_Radial24" cx="0" cy="0" r="1" gradientUnits="userSpaceOnUse" gradientTransform="matrix(277.01,0,0,277.01,323,303.13)"><stop offset="0" style="stop-color:white;stop-opacity:0.5"/><stop offset="0.15" style="stop-color:rgb(207,173,154);stop-opacity:0.5"/><stop offset="0.28" style="stop-color:rgb(165,102,67);stop-opacity:0.5"/><stop offset="0.35" style="stop-color:rgb(149,74,33);stop-opacity:0.5"/><stop offset="0.65" style="stop-color:rgb(84,28,11);stop-opacity:0.5"/><stop offset="0.99" style="stop-color:rgb(54,17,17);stop-opacity:0.5"/><stop offset="1" style="stop-color:rgb(54,17,17);stop-opacity:0.5"/></radialGradient>
        <radialGradient id="_Radial25" cx="0" cy="0" r="1" gradientUnits="userSpaceOnUse" gradientTransform="matrix(216.54,0,0,216.54,256.68,346.73)"><stop offset="0" style="stop-color:white;stop-opacity:1"/><stop offset="0.15" style="stop-color:rgb(207,173,154);stop-opacity:1"/><stop offset="0.28" style="stop-color:rgb(165,102,67);stop-opacity:1"/><stop offset="0.35" style="stop-color:rgb(149,74,33);stop-opacity:1"/><stop offset="0.65" style="stop-color:rgb(84,28,11);stop-opacity:1"/><stop offset="0.99" style="stop-color:rgb(54,17,17);stop-opacity:1"/><stop offset="1" style="stop-color:rgb(54,17,17);stop-opacity:1"/></radialGradient>
        <radialGradient id="_Radial26" cx="0" cy="0" r="1" gradientUnits="userSpaceOnUse" gradientTransform="matrix(201.35,0,0,201.35,415.74,207.61)"><stop offset="0" style="stop-color:white;stop-opacity:0.33"/><stop offset="0.15" style="stop-color:rgb(207,173,154);stop-opacity:0.33"/><stop offset="0.28" style="stop-color:rgb(165,102,67);stop-opacity:0.33"/><stop offset="0.35" style="stop-color:rgb(149,74,33);stop-opacity:0.33"/><stop offset="0.65" style="stop-color:rgb(84,28,11);stop-opacity:0.33"/><stop offset="0.99" style="stop-color:rgb(54,17,17);stop-opacity:0.33"/><stop offset="1" style="stop-color:rgb(54,17,17);stop-opacity:0.33"/></radialGradient>
        <radialGradient id="_Radial27" cx="0" cy="0" r="1" gradientUnits="userSpaceOnUse" gradientTransform="matrix(27.545,0,0,27.545,15.891,15.163)"><stop offset="0" style="stop-color:white;stop-opacity:1"/><stop offset="1" style="stop-color:rgb(0,240,56);stop-opacity:0"/></radialGradient>
        <radialGradient id="_Radial28" cx="0" cy="0" r="1" gradientUnits="userSpaceOnUse" gradientTransform="matrix(25.3105,26.0388,-19.7517,19.1991,16.0283,16.8471)"><stop offset="0" style="stop-color:rgb(155,255,179);stop-opacity:1"/><stop offset="1" style="stop-color:rgb(0,240,56);stop-opacity:1"/></radialGradient>
    </defs>
</svg>
