<?xml version="1.0" encoding="UTF-8" standalone="no"?>
<!-- Created with Inkscape (http://www.inkscape.org/) -->
<svg xmlns:inkscape="http://www.inkscape.org/namespaces/inkscape" xmlns:rdf="http://www.w3.org/1999/02/22-rdf-syntax-ns#" xmlns="http://www.w3.org/2000/svg" xmlns:xlink="http://www.w3.org/1999/xlink" xmlns:ns1="http://sozi.baierouge.fr" xmlns:cc="http://creativecommons.org/ns#" xmlns:sodipodi="http://sodipodi.sourceforge.net/DTD/sodipodi-0.dtd" xmlns:dc="http://purl.org/dc/elements/1.1/" id="svg2" xml:space="preserve" viewBox="0 0 98.831 43.154" version="1.1" inkscape:version="0.91 r13725">
  <defs id="defs6">
    <radialGradient id="radialGradient26" gradientUnits="userSpaceOnUse" cy="-34.985" cx="-58.842" gradientTransform="matrix(-.72376 -.34088 .19608 -1.1177 11.876 -33.153)" r="66.307">
      <stop id="stop28" style="stop-color:#ffffff" offset="0"/>
      <stop id="stop30" style="stop-color:#f9edd1" offset="1"/>
    </radialGradient>
    <linearGradient id="linearGradient44" y2="45.419" gradientUnits="userSpaceOnUse" x2="79.471" gradientTransform="matrix(.69608 .39432 .39432 -.69608 .0045927 34.525)" y1="45.419" x1="20.372">
      <stop id="stop46" style="stop-color:#fffefc" offset="0"/>
      <stop id="stop48" style="stop-color:#ada899" offset="1"/>
    </linearGradient>
    <radialGradient id="radialGradient64" fx="-29.583" gradientUnits="userSpaceOnUse" cy="1.6553" cx="-30.368" gradientTransform="matrix(-.7772 .18952 -.15712 -1.0477 .46166 37.574)" r="16.675">
      <stop id="stop66" style="stop-color:#fcef43" offset="0"/>
      <stop id="stop68" style="stop-color:#ea8a21" offset="1"/>
    </radialGradient>
    <radialGradient id="radialGradient90" fx="-63.835" gradientUnits="userSpaceOnUse" cy="-3.623" cx="-64.731" gradientTransform="matrix(-.77376 .20312 -.16008 -1.1354 -.98336 27.521)" r="19.05">
      <stop id="stop92" style="stop-color:#fcef43" offset="0"/>
      <stop id="stop94" style="stop-color:#ea8a21" offset="1"/>
    </radialGradient>
  </defs>
  <g id="g10" transform="matrix(1.25 0 0 -1.25 0 43.154)">
    <g id="g12">
      <path id="path14" style="fill-rule:evenodd;fill:#afaa8e" d="m66.965 21.406c8.801-0.774 12.801-2.281 12-4.52-0.535-1.496-2.309-2.722-5.32-3.683-0.508-0.157-1.758-1.918-3.758-5.278-2-3.414-4.067-5.48-6.203-6.203-3.864-1.332-8.266-1.89-13.2-1.68-4.691 0.188-8.425 0.973-11.199 2.36-1.762 0.855-2.855 1.883-3.281 3.082-0.371 1.094-1.426 1.973-3.16 2.641-1.094 0.398-3.344 0.625-6.758 0.679-4.375-0.027-7.723-0.039-10.043-0.039-8.984 0.027-14.133 1-15.438 2.918-1.308 1.895-0.441 4.176 2.598 6.84 1.574 1.281 2.641 2.187 3.203 2.723 0.934 0.906 1.266 1.586 1 2.039-0.695 1.199-0.187 2.785 1.52 4.761 1.812 2.079 3.867 3.106 6.16 3.079 2.559-0.028 4.586 0.304 6.078 1 1.652 0.773 3.813 1.214 6.481 1.32 7.574 0.32 13.242 0.066 17-0.762 1.574-0.32 4.574-1.437 9-3.359 1.359-0.586 2.375-1.344 3.039-2.278 0.375-0.535 0.8-1.308 1.281-2.32 1.121-1.789 4.121-2.894 9-3.32z" inkscape:connector-curvature="0"/>
      <g id="g16">
        <g id="g18">
          <g id="g24">
            <path id="path32" style="fill-rule:evenodd;fill:url(#radialGradient26)" d="m66.965 22.324c8.801-0.774 12.801-2.278 12-4.52-0.535-1.492-2.309-2.719-5.32-3.679-0.508-0.161-1.758-1.922-3.758-5.282-2-3.414-4.067-5.48-6.203-6.199-3.864-1.332-8.266-1.894-13.2-1.68-4.691 0.188-8.425 0.973-11.199 2.36-1.762 0.851-2.851 1.879-3.281 3.078-0.371 1.094-1.426 1.976-3.16 2.644-1.094 0.399-3.344 0.625-6.758 0.68-4.375-0.027-7.723-0.043-10.043-0.043-8.984 0.027-14.133 1-15.438 2.922-1.308 1.895-0.441 4.172 2.598 6.84 1.574 1.281 2.641 2.187 3.203 2.719 0.934 0.906 1.266 1.586 1 2.039-0.695 1.203-0.187 2.789 1.52 4.761 1.812 2.082 3.867 3.106 6.16 3.082 2.559-0.027 4.586 0.305 6.078 1 1.652 0.797 3.813 1.25 6.481 1.36 7.601 0.293 13.265 0.039 17-0.762 1.652-0.348 4.652-1.48 9-3.398 1.359-0.586 2.375-1.348 3.039-2.282 0.375-0.507 0.8-1.281 1.281-2.32 1.148-1.785 4.148-2.894 9-3.32z" inkscape:connector-curvature="0"/>
          </g>
        </g>
      </g>
      <g id="g34">
        <g id="g36">
          <g id="g42">
            <path id="path50" style="fill-rule:evenodd;fill:url(#linearGradient44)" d="m66.164 4.964c1.359 1.387 2.867 3.508 4.52 6.36 1.308 2.242 2.269 3.441 2.882 3.601 1.625 0.399 2.664 0.719 3.118 0.961 1.226 0.664 1.949 1.719 2.16 3.16 0.558-0.91 0.039-1.933-1.559-3.082-1.148-0.8-2.359-1.414-3.64-1.839-0.508-0.161-1.762-1.922-3.762-5.282-2-3.414-4.067-5.48-6.199-6.199-3.868-1.332-8.266-1.894-13.2-1.68-4.691 0.188-8.425 0.973-11.199 2.36-1.762 0.851-2.855 1.879-3.281 3.078-0.375 1.094-1.426 1.976-3.16 2.644-1.094 0.399-3.348 0.625-6.758 0.68-4.375-0.027-7.723-0.043-10.043-0.043-8.984 0.027-14.133 1-15.438 2.922-1.199 1.758-0.613 3.785 1.758 6.082 2.852 2.219 4.512 3.738 4.981 4.559l-0.539-1c-0.028-0.028-1.055-0.95-3.078-2.762-1.497-1.332-2.188-2.641-2.082-3.918 0.082-1.043 1.027-2.016 2.839-2.922 2.375-1.172 5.547-1.664 9.52-1.48 3.336 0.16 8.094 0.402 14.281 0.722 4.692-0.054 7.453-0.883 8.281-2.484 0.586-1.145 1.051-2.383 1.399-3.719 0.668-0.984 2.68-1.984 6.039-3 2.48-0.746 6.121-1.012 10.922-0.797 5.707 0.239 9.453 1.266 11.238 3.078z" inkscape:connector-curvature="0"/>
          </g>
        </g>
      </g>
      <path id="path52" style="fill-rule:evenodd;fill:#e1cdb7" d="m33.406 30.804c0.879-1.199 1.039-2.547 0.481-4.039-0.641-1.652-1.934-2.922-3.883-3.801-2.238-0.984-4.801-1.121-7.68-0.398-2.984 0.746-4.504 2.094-4.558 4.039-0.028 0.695 0.16 1.281 0.558 1.762 0.375 0.453 0.746 0.586 1.121 0.398 0.239-0.133 1.453 0.586 3.641 2.16 2.32 1.68 4.266 2.399 5.84 2.16 2.051-0.293 3.547-1.054 4.48-2.281z" inkscape:connector-curvature="0"/>
      <g id="g54">
        <g id="g56">
          <g id="g62">
            <path id="path70" style="fill-rule:evenodd;fill:url(#radialGradient64)" d="m30.805 32.726c1.679-1.043 2.574-2.348 2.679-3.922 0.133-1.574-0.558-2.961-2.078-4.16-1.519-1.199-3.414-1.867-5.679-2-2.27-0.133-4.243 0.32-5.922 1.359-1.653 1.043-2.547 2.348-2.68 3.922-0.105 1.575 0.586 2.961 2.078 4.16 1.524 1.2 3.414 1.868 5.684 2 2.265 0.106 4.238-0.347 5.918-1.359z" inkscape:connector-curvature="0"/>
          </g>
        </g>
      </g>
      <path id="path72" style="fill-rule:evenodd;fill:#f9dc68" d="m32.605 30.324c0.215-0.453 0.333-0.907 0.36-1.36 0.133-1.414-0.52-2.664-1.961-3.757-1.438-1.094-3.227-1.696-5.359-1.801-1.84-0.082-3.508 0.238-5 0.961-1.465 0.691-2.426 1.613-2.879 2.758 2.078-1.602 5.132-2.094 9.16-1.481 1.652 0.242 3.039 0.973 4.16 2.199 0.773 0.828 1.277 1.657 1.519 2.481z" inkscape:connector-curvature="0"/>
      <path id="path74" style="fill-rule:evenodd;fill:#ffffff" d="m23.727 33.445c0.718-0.188 0.613-0.481-0.321-0.879-0.988-0.426-1.496-0.469-1.519-0.121-0.028 0.293 0.199 0.547 0.679 0.762 0.454 0.21 0.84 0.293 1.161 0.238z" inkscape:connector-curvature="0"/>
      <path id="path76" style="fill-rule:evenodd;fill:#ffffff" d="m21.164 32.207c0.266-0.082 0.293-0.227 0.082-0.442-0.187-0.215-0.375-0.308-0.562-0.281-0.266 0.055-0.321 0.199-0.161 0.441 0.161 0.266 0.375 0.36 0.641 0.282z" inkscape:connector-curvature="0"/>
      <path id="path78" style="fill-rule:evenodd;fill:#e1cdb7" d="m55.363 22.246c2.293-0.348 3.949-1.266 4.961-2.762 0.988-1.438 1.16-3.082 0.52-4.918-0.719-2.027-2.172-3.574-4.36-4.641-2.507-1.226-5.375-1.402-8.601-0.519-3.36 0.906-5.051 2.531-5.078 4.879-0.028 0.851 0.187 1.574 0.64 2.16 0.426 0.558 0.852 0.734 1.282 0.519 0.265-0.16 1.625 0.719 4.078 2.641 2.586 2.027 4.773 2.906 6.558 2.641z" inkscape:connector-curvature="0"/>
      <g id="g80">
        <g id="g82">
          <g id="g88">
            <path id="path96" style="fill-rule:evenodd;fill:url(#radialGradient90)" d="m60.727 16.964c0.132-1.945-0.668-3.668-2.403-5.16-1.734-1.492-3.894-2.32-6.48-2.48s-4.824 0.386-6.719 1.64c-1.895 1.282-2.906 2.895-3.039 4.84-0.109 1.949 0.691 3.668 2.398 5.16 1.735 1.493 3.895 2.321 6.481 2.481 2.558 0.16 4.785-0.387 6.68-1.641 1.921-1.281 2.945-2.894 3.082-4.84z" inkscape:connector-curvature="0"/>
          </g>
        </g>
      </g>
      <path id="path98" style="fill-rule:evenodd;fill:#f9dc68" d="m60.203 17.125c0.109-1.813-0.637-3.426-2.238-4.84-1.625-1.387-3.625-2.149-6-2.282-2.082-0.132-3.945 0.243-5.602 1.122-1.625 0.906-2.691 2.093-3.199 3.558 2.293-2.027 5.707-2.641 10.242-1.84 1.84 0.321 3.399 1.254 4.68 2.801 0.879 1.094 1.441 2.16 1.68 3.199 0.265-0.613 0.414-1.183 0.437-1.718z" inkscape:connector-curvature="0"/>
      <path id="path100" style="fill-rule:evenodd;fill:#ffffff" d="m49.605 22.644c0.801-0.215 0.665-0.574-0.402-1.078-1.09-0.535-1.664-0.586-1.719-0.16-0.027 0.344 0.243 0.664 0.801 0.957 0.508 0.269 0.945 0.363 1.32 0.281z" inkscape:connector-curvature="0"/>
      <path id="path102" style="fill-rule:evenodd;fill:#ffffff" d="m46.684 21.085c0.293-0.082 0.336-0.253 0.121-0.519-0.239-0.27-0.453-0.387-0.641-0.363-0.293 0.054-0.359 0.242-0.199 0.562 0.187 0.32 0.426 0.426 0.719 0.32z" inkscape:connector-curvature="0"/>
      <path id="path104" style="fill-rule:evenodd;fill:#ffffff" d="m10.844 19.285c0.16 0.132 0.293 0.132 0.402 0 0.106-0.133 0.066-0.282-0.121-0.442-0.187-0.211-0.348-0.25-0.48-0.117-0.161 0.133-0.094 0.32 0.199 0.559z" inkscape:connector-curvature="0"/>
      <path id="path106" style="fill-rule:evenodd;fill:#ffffff" d="m10.285 18.683c0.16 0 0.188-0.105 0.078-0.32-0.105-0.211-0.199-0.266-0.277-0.16-0.055 0.109-0.055 0.214 0 0.32 0.051 0.109 0.117 0.16 0.199 0.16z" inkscape:connector-curvature="0"/>
      <path id="path108" style="fill-rule:evenodd;fill:#ffffff" d="m12.766 17.363c0.238 0.215 0.425 0.215 0.558 0 0.133-0.184 0.082-0.399-0.16-0.637-0.266-0.269-0.504-0.309-0.719-0.121-0.215 0.16-0.105 0.414 0.321 0.758z" inkscape:connector-curvature="0"/>
      <path id="path110" style="fill-rule:evenodd;fill:#ffffff" d="m11.965 16.484c0.238 0 0.293-0.149 0.16-0.438-0.16-0.32-0.305-0.402-0.441-0.242-0.106 0.133-0.118 0.281-0.039 0.442 0.082 0.16 0.187 0.238 0.32 0.238z" inkscape:connector-curvature="0"/>
      <path id="path112" style="fill-rule:evenodd;fill:#ffffff" d="m40.445 32.085c0.16 0.133 0.293 0.133 0.399 0 0.082-0.132 0.043-0.281-0.117-0.441-0.188-0.187-0.348-0.211-0.485-0.078-0.156 0.105-0.09 0.277 0.203 0.519z" inkscape:connector-curvature="0"/>
      <path id="path114" style="fill-rule:evenodd;fill:#ffffff" d="m39.887 31.484c0.156 0 0.199-0.106 0.117-0.32-0.106-0.211-0.199-0.266-0.277-0.161-0.082 0.11-0.094 0.215-0.043 0.321 0.054 0.109 0.121 0.16 0.203 0.16z" inkscape:connector-curvature="0"/>
      <path id="path116" style="fill-rule:evenodd;fill:#ffffff" d="m42.844 27.886c0.109 0.078 0.187 0.078 0.242 0 0.051-0.054 0.027-0.136-0.082-0.242-0.106-0.105-0.199-0.133-0.277-0.078-0.082 0.078-0.043 0.184 0.117 0.32z" inkscape:connector-curvature="0"/>
      <path id="path118" style="fill-rule:evenodd;fill:#ffffff" d="m42.523 27.566c0.11-0.027 0.133-0.094 0.082-0.199-0.082-0.11-0.148-0.137-0.199-0.082-0.027 0.054-0.027 0.121 0 0.199 0.024 0.055 0.067 0.082 0.117 0.082z" inkscape:connector-curvature="0"/>
      <path id="path120" style="fill-rule:evenodd;fill:#ffffff" d="m69.285 22.003c0.133 0.11 0.227 0.11 0.281 0 0.055-0.105 0.028-0.211-0.082-0.32-0.105-0.105-0.214-0.117-0.32-0.039-0.133 0.082-0.094 0.199 0.121 0.359z" inkscape:connector-curvature="0"/>
      <path id="path122" style="fill-rule:evenodd;fill:#ffffff" d="m68.926 21.605c0.105-0.027 0.117-0.105 0.039-0.242-0.082-0.133-0.149-0.172-0.199-0.117-0.028 0.078-0.028 0.16 0 0.238 0.054 0.082 0.105 0.121 0.16 0.121z" inkscape:connector-curvature="0"/>
      <path id="path124" style="fill-rule:evenodd;fill:#ffffff" d="m71.805 19.964c0.133 0.106 0.226 0.106 0.281 0 0.078-0.105 0.051-0.226-0.082-0.359-0.133-0.16-0.266-0.188-0.399-0.082-0.132 0.109-0.066 0.254 0.2 0.441z" inkscape:connector-curvature="0"/>
      <path id="path126" style="fill-rule:evenodd;fill:#ffffff" d="m71.324 19.484c0.133 0 0.16-0.094 0.082-0.281-0.109-0.157-0.187-0.2-0.242-0.118-0.051 0.079-0.051 0.161 0 0.239 0.055 0.105 0.106 0.16 0.16 0.16z" inkscape:connector-curvature="0"/>
      <path id="path128" style="fill-rule:evenodd;fill:#ffffff" d="m69.164 18.886c0.082 0.078 0.148 0.078 0.199 0 0.055-0.054 0.028-0.136-0.078-0.242-0.082-0.105-0.16-0.121-0.242-0.039-0.078 0.055-0.039 0.145 0.121 0.281z" inkscape:connector-curvature="0"/>
      <path id="path130" style="fill-rule:evenodd;fill:#ffffff" d="m68.844 18.566c0.109 0 0.133-0.055 0.082-0.16-0.055-0.11-0.106-0.137-0.16-0.082-0.028 0.054-0.028 0.105 0 0.16 0 0.055 0.027 0.082 0.078 0.082z" inkscape:connector-curvature="0"/>
      <path id="path132" style="fill-rule:evenodd;fill:#ffffff" d="m55.004 5.804c0.133 0.11 0.242 0.11 0.32 0 0.055-0.105 0.028-0.226-0.082-0.359-0.156-0.133-0.289-0.16-0.398-0.082-0.106 0.109-0.051 0.254 0.16 0.441z" inkscape:connector-curvature="0"/>
      <path id="path134" style="fill-rule:evenodd;fill:#ffffff" d="m54.566 5.324c0.133 0 0.161-0.078 0.079-0.239-0.079-0.16-0.149-0.199-0.2-0.121-0.054 0.082-0.066 0.161-0.039 0.239 0.051 0.082 0.106 0.121 0.16 0.121z" inkscape:connector-curvature="0"/>
      <path id="path136" style="fill-rule:evenodd;fill:#e5d7b4" d="m12.887 27.445c0.797-0.16 0.957-0.375 0.476-0.641-0.504-0.238-1-0.32-1.476-0.238-0.375 0.078-0.403 0.266-0.082 0.559 0.347 0.292 0.707 0.398 1.082 0.32z" inkscape:connector-curvature="0"/>
      <path id="path138" style="fill-rule:evenodd;fill:#e5d7b4" d="m14.203 26.085c0.801-0.082 0.922-0.281 0.363-0.601-0.562-0.32-1-0.438-1.32-0.359-0.242 0.078-0.254 0.265-0.043 0.558 0.242 0.297 0.574 0.43 1 0.402z" inkscape:connector-curvature="0"/>
      <path id="path140" style="fill-rule:evenodd;fill:#e5d7b4" d="m27.887 18.605c2.023-0.402 2.586-0.867 1.679-1.402-0.961-0.586-1.867-0.598-2.722-0.039-0.664 0.429-0.813 0.816-0.438 1.16 0.371 0.32 0.864 0.414 1.481 0.281z" inkscape:connector-curvature="0"/>
      <path id="path142" style="fill-rule:evenodd;fill:#e5d7b4" d="m29.406 16.363c0.614-0.266 0.84-0.504 0.68-0.719-0.133-0.184-0.481-0.238-1.043-0.16-0.477 0.055-0.613 0.242-0.398 0.562 0.214 0.344 0.464 0.454 0.761 0.317z" inkscape:connector-curvature="0"/>
      <path id="path144" style="fill-rule:evenodd;fill:#e5d7b4" d="m41.566 10.644c0.825-0.266 1.278-0.668 1.36-1.199 0.078-0.535-0.442-0.641-1.563-0.32-1.066 0.292-1.425 0.652-1.078 1.078 0.348 0.429 0.774 0.574 1.281 0.441z" inkscape:connector-curvature="0"/>
      <path id="path146" style="fill-rule:evenodd;fill:#e5d7b4" d="m38.363 22.566c1.364-0.32 1.895-0.695 1.602-1.121-0.293-0.399-1.067-0.52-2.32-0.36-1.094 0.133-1.415 0.454-0.961 0.961 0.453 0.504 1.015 0.68 1.679 0.52z" inkscape:connector-curvature="0"/>
      <path id="path148" style="fill-rule:evenodd;fill:#e5d7b4" d="m40.805 24.203c0.453-0.266 0.574-0.532 0.359-0.797-0.187-0.242-0.519-0.281-1-0.121-0.426 0.16-0.508 0.398-0.238 0.718 0.265 0.293 0.558 0.36 0.879 0.2z" inkscape:connector-curvature="0"/>
      <path id="path150" style="fill-rule:evenodd;fill:#e5d7b4" d="m63.965 16.566c-0.828 0.078-1.149 0.398-0.961 0.957 0.187 0.613 0.535 0.867 1.039 0.762 1.602-0.321 2.254-0.719 1.961-1.2-0.293-0.453-0.973-0.628-2.039-0.519z" inkscape:connector-curvature="0"/>
      <path id="path152" style="fill-rule:evenodd;fill:#e5d7b4" d="m65.043 16.246c0.375-0.133 0.496-0.336 0.363-0.602-0.109-0.242-0.386-0.309-0.84-0.199-0.402 0.105-0.496 0.293-0.281 0.558 0.238 0.243 0.492 0.321 0.758 0.243z" inkscape:connector-curvature="0"/>
      <path id="path154" style="fill-rule:evenodd;fill:#e5d7b4" d="m62.887 7.003c0.773-0.078 0.972-0.414 0.597-1-0.398-0.586-0.933-0.679-1.597-0.277-0.617 0.371-0.684 0.691-0.203 0.957 0.375 0.242 0.773 0.348 1.203 0.32z" inkscape:connector-curvature="0"/>
      <path id="path156" style="fill-rule:evenodd;fill:#e5d7b4" d="m61.285 5.363c0.426-0.16 0.508-0.36 0.242-0.598-0.269-0.242-0.55-0.281-0.843-0.121-0.266 0.16-0.278 0.336-0.039 0.52 0.214 0.214 0.425 0.281 0.64 0.199z" inkscape:connector-curvature="0"/>
    </g>
  </g>
<metadata><rdf:RDF><cc:Work><dc:format>image/svg+xml</dc:format><dc:type rdf:resource="http://purl.org/dc/dcmitype/StillImage"/><cc:license rdf:resource="http://creativecommons.org/licenses/publicdomain/"/><dc:publisher><cc:Agent rdf:about="http://openclipart.org/"><dc:title>Openclipart</dc:title></cc:Agent></dc:publisher></cc:Work><cc:License rdf:about="http://creativecommons.org/licenses/publicdomain/"><cc:permits rdf:resource="http://creativecommons.org/ns#Reproduction"/><cc:permits rdf:resource="http://creativecommons.org/ns#Distribution"/><cc:permits rdf:resource="http://creativecommons.org/ns#DerivativeWorks"/></cc:License></rdf:RDF></metadata></svg>
