<?xml version="1.0" encoding="UTF-8"?>
<svg id="Layer_1" data-name="Layer 1" xmlns="http://www.w3.org/2000/svg" width="223.2" height="89.28" viewBox="0 0 223.2 89.28">
  <path id="Roo" d="M179.99,11.98h-4s-1.5-.4,0-.9,1.8-.2,2.4-.6,1.4-2.6,2.4-3.3,3.5-1.8,5.2,1,1.4,5.2.9,7.4-5.1,15.4-5.1,15.4c0,0-1.8,4.7.1,6.9s5.6.9,6.9.3,6.9-3,12.9-1,21.2,11.5,21.2,24.5c0,0,.4,2.9-3,2.6s-5.8-1-6.2-1.2-4.4-1.2-5.5,3.1c-1.1,4.3-1.6,19.8-1.6,19.8,0,0,0,3.1-3.2,3s-11.6,0-11.6,0c0,0,.5-1.8,3.3-2.2,2.8-.4,5.7-.8,6-.8s2.3-.8,3-3.1,0-14.4-.1-14.5-.9-7.1-6.2-7.8c0,0,.9,1.9-.1,3s-2.7,3.5-3.2,4.3-4.3,8.5-4.8,9.6-3.7,6.7-3.8,6.9-1,1.6-.7,2.7-.2,1.7-.8,1.6-13.7,0-13.7,0c0,0,1.7-1.9,5-2.2s3.1,0,4.2-.5,3.1-2.2,4.4-4,7.4-14.3,7.4-14.3c0,0,1.1-4.4-.2-6.6s-1.4-1.7-2.8-1.6-1.9.7-5-.7-8-6.2-9.3-8.3-5.8-10.9-2.1-18.1,8.3-15.1,9.1-16.3,1.5-3.4-1.4-3.8v-.3Z" style="fill: #ff9000; stroke: #000; stroke-miterlimit: 10; stroke-width: .6px;"/>
  <path d="M66.99,19.78c.6,1.7-6.6,13.6-11.1,17.5s-14.4,9.7-13.4,25.7c1,15.9,0,19.2-8.6,21-8.6,1.7-27.8,1.5-29.6,1.7s-8,2.5,0,2.9,30.5.4,36.2,0c5.6-.4,8.9-5.1,10.1-8.6s1.4-9.3,7-10.1c0,0,1.2,5.4-.8,10.5s-3.3,8.6,1.9,8.5,29,0,29,0c0,0-2.1-5-12.8-3.8-10.7,1.2-11.9,1.7-12.2-1.4s.8-12.1,3.3-13.8,1.7-12.1,1.9-13,1.7-5.6,2.3-6.4,2.7-4.3,2.9-5.6c0,0,6.8,0,6,9.5,0,0,.6,1.7,1.6,0s2.5-9.1-5.4-15.3c0,0,0-3.5,1.5-4s1.9-3.2,2.7-4.1,5.3-2.7,5.3-2.7c0,0,.8-.4,2.9-.3s3.3.3,3.5-.3-.5-2.1-2.5-2.4-1.7-.3-4.4.2-6.3,2.6-6.3,2.6c0,0-1.6.4-1.7-1s-.4-3.8-.4-4.7-1.5-3.4-1.1-4.2,1.5-1.3,3.8-1.2,2.7-.6,3.3-1,1.2-2.2.4-2.9-4.1-2-4.1-2.6,0-1.4-.6-2-2.2-1.3-2.1-1.7,1-5.7.4-6.1-.3-.6-.9,0c-.6.6-2.6,3-3.2,4.7-.6,1.7-1.6,0-1.6,0,0,0-2.1-2.6-3.9-3.1s-2.3-1.3-1.8.9c.5,2.2,3.8,5.1,3.6,6.2s-.3,1.8-.9,3.5c-.6,1.7,0,2.1,0,4s-.5,3.1-.5,3.1l.3-.2Z" style="fill: #ff9000; stroke: #000; stroke-miterlimit: 10; stroke-width: .6px;"/>
  <g>
    <path d="M160.49,44.28s-6.7,9.5-28.5,13.5c-21.8,3.9-49.7-11.4-40.1-21.9s15.2-.8,19.1,1.1,14.3,5.5,24.1,2.4c6.4-2,15.3-7.7,19.9-8,9.5-.6,10.9,6.9,5.5,13v-.1Z" style="fill: #ff9000; stroke: #000; stroke-miterlimit: 10; stroke-width: .5px;"/>
    <path d="M91.79,37.88s-3.4,4.1-9.7,1.7c0,0,2.5-3.2,7.6-3.4,0,0-3.1-.1-5-2.6,0,0,2.1-1.7,6.1,1.2,0,0-2.1-1.2-.9-4.6,0,0,3.4,1,3.1,5.9" style="fill: #ff9000; stroke: #000; stroke-miterlimit: 10; stroke-width: .5px;"/>
    <path d="M161.29,34.38s-1.9-5,3.3-9.3c0,0,1.6,3.7-.7,8.4,0,0,1.6-2.7,4.7-3.1,0,0,.4,2.7-4,4.8,0,0,2.1-1.2,4.5,1.4,0,0-2.5,2.5-6.7-.1" style="fill: #ff9000; stroke: #000; stroke-miterlimit: 10; stroke-width: .5px;"/>
  </g>
</svg>